<?xml version="1.0" encoding="UTF-8"?>
<svg id="Ebene_1" data-name="Ebene 1" xmlns="http://www.w3.org/2000/svg" viewBox="0 0 710.2 315.33">
  <polygon points="444.62 65.64 444.58 136.69 371.42 209.85 371.42 65.64 444.62 65.64"/>
  <polygon points="279.51 137.45 279.55 69.73 349.28 0 349.28 137.45 279.51 137.45"/>
  <g>
    <path d="M68.76,294.44h-27.74v-3.34c2.45-.16,4.48-.47,6.09-.94,1.61-.47,2.42-1.05,2.42-1.74,0-.28-.03-.63-.09-1.03-.06-.41-.16-.77-.28-1.08l-5.53-14.95h-23.43c-.88,2.19-1.59,4.11-2.14,5.74-.55,1.63-1.04,3.14-1.48,4.51-.41,1.35-.69,2.45-.85,3.29-.16.85-.24,1.54-.24,2.07,0,1.25.99,2.23,2.96,2.92,1.98.69,4.2,1.1,6.68,1.22v3.34H0v-3.34c.82-.06,1.84-.24,3.06-.54,1.22-.3,2.23-.7,3.01-1.2,1.25-.85,2.23-1.73,2.92-2.66.69-.92,1.36-2.2,2.02-3.83,3.35-8.37,7.05-17.78,11.1-28.22,4.04-10.44,7.65-19.74,10.82-27.89h3.76l22.25,57.57c.47,1.22,1,2.21,1.6,2.96.59.75,1.43,1.49,2.49,2.21.72.44,1.66.81,2.82,1.11,1.16.3,2.13.46,2.92.49v3.34ZM41.91,267.17l-10.11-25.9-9.96,25.9h20.07Z"/>
    <path d="M91.66,294.44h-22.62v-3.1c.72-.06,1.49-.13,2.3-.21.82-.08,1.49-.2,2.02-.35.88-.28,1.54-.78,1.97-1.48s.66-1.62.66-2.75v-53.75c0-1.13-.24-2.19-.73-3.18-.49-.99-1.12-1.77-1.9-2.33-.56-.38-1.6-.72-3.1-1.04s-2.71-.5-3.62-.57v-3.01l17.45-1.03.66.71v63.63c0,1.1.2,2,.61,2.7.41.71,1.07,1.25,1.97,1.62.69.31,1.37.55,2.05.71.68.16,1.44.27,2.28.33v3.1Z"/>
    <path d="M139.87,253.57c1.85,2.2,3.28,4.74,4.3,7.64,1.02,2.9,1.53,6.22,1.53,9.95s-.61,7.02-1.83,10.04c-1.22,3.03-2.84,5.6-4.85,7.74-2.1,2.16-4.44,3.83-7.01,4.99-2.57,1.16-5.3,1.74-8.18,1.74s-5.08-.31-6.87-.94c-1.79-.63-3.25-1.36-4.37-2.21h-.38v13.95c0,1.13.22,2.07.66,2.83.44.75,1.11,1.3,2.02,1.65.75.28,1.83.56,3.22.83,1.39.27,2.55.42,3.46.45v3.1h-25.91v-3.1c.97-.06,1.91-.14,2.82-.23.91-.09,1.72-.25,2.45-.47.94-.31,1.6-.86,1.97-1.65.38-.78.56-1.71.56-2.77v-49.34c0-.94-.23-1.85-.71-2.73-.47-.88-1.08-1.58-1.83-2.12-.56-.38-1.35-.67-2.35-.87-1-.2-1.97-.34-2.92-.4v-3.1l15.8-1.03.66.56v5.22l.38.09c1.63-1.88,3.65-3.45,6.07-4.7,2.41-1.25,4.81-1.88,7.2-1.88,2.89,0,5.53.61,7.92,1.83s4.46,2.87,6.18,4.94ZM132.2,286.92c1.25-1.94,2.18-4.2,2.77-6.77.6-2.57.89-5.44.89-8.61,0-2.32-.25-4.69-.75-7.1-.5-2.41-1.29-4.51-2.35-6.3-1.07-1.82-2.46-3.29-4.19-4.42-1.72-1.13-3.79-1.69-6.21-1.69s-4.3.51-5.93,1.53c-1.63,1.02-3.04,2.23-4.23,3.64v27.42c.28.85.74,1.72,1.39,2.63.64.91,1.35,1.69,2.14,2.35.97.78,2.02,1.42,3.15,1.9,1.13.49,2.51.73,4.14.73,1.76,0,3.45-.46,5.08-1.39,1.63-.92,2.99-2.23,4.09-3.93Z"/>
    <path d="M193.72,283.53c-1.94,3.7-4.55,6.65-7.81,8.84-3.26,2.19-7.01,3.29-11.24,3.29-3.73,0-7-.66-9.81-1.98-2.81-1.32-5.12-3.1-6.94-5.36-1.82-2.26-3.17-4.89-4.07-7.9-.89-3.01-1.34-6.19-1.34-9.55,0-3.01.48-5.96,1.43-8.86.96-2.9,2.36-5.51,4.21-7.83,1.79-2.23,4-4.02,6.65-5.39,2.65-1.36,5.62-2.05,8.91-2.05s6.29.53,8.7,1.6c2.41,1.07,4.37,2.52,5.88,4.37,1.44,1.76,2.52,3.82,3.22,6.21.71,2.38,1.06,4.97,1.06,7.76v3.1h-30.71c0,3.05.29,5.81.87,8.3.58,2.48,1.5,4.67,2.75,6.55,1.22,1.82,2.82,3.26,4.8,4.31,1.98,1.05,4.33,1.58,7.06,1.58s5.2-.65,7.22-1.96c2.02-1.31,3.97-3.66,5.86-7.07l3.29,2.02ZM183.33,265.85c0-1.75-.15-3.63-.45-5.63-.3-2-.77-3.67-1.43-5.02-.72-1.44-1.71-2.61-2.96-3.52-1.26-.91-2.87-1.36-4.84-1.36-3.29,0-6.03,1.37-8.21,4.1-2.18,2.74-3.36,6.54-3.55,11.42h21.45Z"/>
    <path d="M250.3,294.44h-22.67v-3.1c.72-.06,1.51-.12,2.38-.19.86-.06,1.57-.19,2.14-.38.88-.28,1.53-.78,1.95-1.48.42-.71.64-1.62.64-2.75v-23.84c0-3.29-.78-5.83-2.33-7.62-1.56-1.79-3.45-2.68-5.68-2.68-1.67,0-3.19.26-4.57.78-1.38.52-2.61,1.15-3.68,1.9-1.04.72-1.86,1.5-2.48,2.33-.61.83-1.06,1.5-1.34,2v26.67c0,1.07.22,1.94.66,2.63.44.69,1.1,1.22,1.97,1.6.66.31,1.37.55,2.14.71.77.16,1.56.27,2.37.33v3.1h-22.72v-3.1c.72-.06,1.47-.12,2.23-.19.77-.06,1.44-.19,2-.38.88-.28,1.53-.77,1.95-1.48.42-.7.64-1.62.64-2.75v-28.61c0-1.06-.23-2.04-.68-2.94-.46-.89-1.09-1.62-1.9-2.18-.6-.38-1.3-.65-2.12-.82-.82-.17-1.69-.29-2.63-.35v-3.1l15.43-1.03.66.66v6.54h.24c.75-.75,1.69-1.65,2.82-2.7,1.13-1.05,2.19-1.9,3.2-2.56,1.16-.75,2.54-1.38,4.14-1.88,1.6-.5,3.4-.75,5.41-.75,4.45,0,7.75,1.39,9.9,4.16,2.15,2.78,3.22,6.47,3.22,11.08v24.13c0,1.1.19,1.98.56,2.66s1.02,1.2,1.93,1.58c.75.31,1.4.53,1.95.66.55.13,1.31.22,2.28.28v3.1Z"/>
    <path d="M299.91,293.6c-1.47.53-2.77.96-3.88,1.29-1.11.33-2.37.49-3.79.49-2.45,0-4.4-.57-5.86-1.72-1.46-1.14-2.39-2.81-2.8-5.01h-.28c-2.04,2.26-4.23,3.98-6.56,5.17-2.33,1.19-5.15,1.79-8.44,1.79-3.48,0-6.34-1.07-8.58-3.2-2.24-2.13-3.36-4.92-3.36-8.37,0-1.79.25-3.39.75-4.8.5-1.41,1.25-2.68,2.26-3.81.78-.94,1.82-1.78,3.1-2.52,1.29-.74,2.49-1.32,3.62-1.76,1.41-.53,4.27-1.52,8.58-2.96,4.31-1.44,7.22-2.57,8.72-3.39v-4.66c0-.41-.09-1.19-.26-2.35-.17-1.16-.54-2.26-1.11-3.29-.63-1.16-1.51-2.17-2.66-3.03s-2.77-1.29-4.87-1.29c-1.44,0-2.78.24-4.02.73-1.24.49-2.11,1-2.61,1.53,0,.63.15,1.55.45,2.78.3,1.22.45,2.35.45,3.39,0,1.1-.49,2.1-1.48,3.01-.99.91-2.36,1.36-4.11,1.36-1.57,0-2.72-.56-3.46-1.67-.74-1.11-1.11-2.36-1.11-3.74s.51-2.82,1.53-4.14c1.02-1.32,2.34-2.49,3.97-3.53,1.41-.88,3.12-1.62,5.13-2.23,2.01-.61,3.97-.92,5.88-.92,2.63,0,4.93.18,6.89.54,1.96.36,3.74,1.14,5.34,2.33,1.6,1.16,2.81,2.74,3.65,4.73.83,1.99,1.25,4.55,1.25,7.69,0,4.48-.05,8.46-.14,11.92-.09,3.46-.14,7.25-.14,11.36,0,1.22.21,2.2.63,2.92.42.72,1.07,1.33,1.95,1.83.47.28,1.21.44,2.23.47,1.02.03,2.06.05,3.13.05v3.01ZM283.5,268.77c-2.67.79-5,1.56-7.01,2.31-2.01.75-3.87,1.7-5.6,2.83-1.57,1.07-2.81,2.33-3.72,3.79-.91,1.46-1.36,3.2-1.36,5.21,0,2.61.68,4.52,2.05,5.75,1.36,1.23,3.1,1.84,5.2,1.84,2.23,0,4.19-.54,5.88-1.63s3.12-2.36,4.28-3.84l.28-16.26Z"/>
    <path d="M397.45,231.05c-.88.03-2.23.28-4.05.75-1.82.47-3.12.96-3.9,1.46-1.13.78-1.89,2.29-2.28,4.51-.39,2.23-.59,5.05-.59,8.47v48.86h-4.09l-40.45-54.6v34.43c0,3.86.24,6.82.73,8.89.49,2.07,1.23,3.54,2.23,4.42.72.69,2.21,1.33,4.47,1.93,2.26.6,3.75.91,4.47.94v3.34h-27.37v-3.34c.85-.06,2.27-.37,4.28-.92,2.01-.55,3.26-1.04,3.76-1.48,1.1-.88,1.85-2.22,2.26-4.02.41-1.8.61-4.88.61-9.24v-32.87c0-1.44-.25-2.89-.75-4.33-.5-1.44-1.18-2.56-2.02-3.34-1.13-1.03-2.66-1.92-4.59-2.66-1.93-.74-3.49-1.14-4.68-1.2v-3.34h19.07l37.51,50.88v-31.74c0-3.89-.25-6.87-.75-8.96-.5-2.08-1.22-3.47-2.16-4.16-.88-.6-2.31-1.18-4.3-1.74-1.99-.56-3.5-.88-4.54-.94v-3.34h27.14v3.34Z"/>
    <path d="M446.88,270.79c0,3.26-.52,6.47-1.55,9.62-1.04,3.15-2.51,5.82-4.42,8.02-2.17,2.51-4.68,4.37-7.53,5.6-2.86,1.22-6.06,1.83-9.61,1.83-2.95,0-5.76-.56-8.43-1.67-2.67-1.11-5.04-2.74-7.11-4.87-2.04-2.1-3.66-4.66-4.87-7.69-1.21-3.02-1.81-6.42-1.81-10.18,0-7.24,2.11-13.17,6.33-17.78,4.22-4.61,9.75-6.91,16.6-6.91s11.86,2.19,16.08,6.56c4.22,4.37,6.33,10.2,6.33,17.47ZM437.15,270.88c0-2.35-.24-4.84-.71-7.45s-1.18-4.84-2.12-6.66c-1.01-1.94-2.33-3.5-3.96-4.68-1.63-1.18-3.63-1.76-5.99-1.76s-4.48.6-6.2,1.79c-1.71,1.19-3.1,2.82-4.17,4.89-1.01,1.91-1.71,4.09-2.12,6.54-.41,2.45-.61,4.81-.61,7.1,0,3.01.24,5.79.73,8.35.49,2.56,1.26,4.84,2.33,6.84,1.07,2.01,2.41,3.58,4.03,4.73,1.62,1.15,3.62,1.72,6.01,1.72,3.93,0,7.04-1.9,9.33-5.69,2.29-3.79,3.44-9.03,3.44-15.71Z"/>
    <path d="M489.07,254.05c0,1.6-.39,3.02-1.17,4.26-.78,1.24-1.99,1.86-3.62,1.86-1.76,0-3.1-.45-4.02-1.36-.92-.91-1.39-1.91-1.39-3.01,0-.69.05-1.32.16-1.88.11-.56.21-1.13.31-1.69-1.47,0-3.2.6-5.17,1.79-1.98,1.19-3.65,2.89-5.03,5.08v27c0,1.1.21,1.99.64,2.68.42.69,1.09,1.21,2,1.55.78.31,1.8.55,3.03.71,1.24.16,2.31.27,3.22.33v3.1h-24.46v-3.1c.72-.06,1.47-.12,2.23-.19.77-.06,1.44-.19,2-.38.88-.28,1.53-.77,1.95-1.48.42-.7.64-1.62.64-2.75v-28.61c0-.97-.23-1.93-.68-2.87-.46-.94-1.09-1.69-1.9-2.26-.6-.38-1.3-.65-2.12-.82-.82-.17-1.69-.29-2.63-.35v-3.1l15.43-1.03.66.66v6.54h.24c1.94-2.54,4.11-4.47,6.49-5.78,2.38-1.32,4.56-1.98,6.54-1.98s3.58.64,4.82,1.93c1.24,1.29,1.86,3.01,1.86,5.17Z"/>
    <path d="M543.81,293.6l-16.22,1.03-.71-.66v-4.33l-.37-.09c-1.63,1.82-3.64,3.31-6.04,4.47-2.39,1.16-4.86,1.74-7.4,1.74s-5.17-.59-7.63-1.76c-2.46-1.18-4.6-2.83-6.41-4.96-1.85-2.16-3.31-4.77-4.39-7.81-1.08-3.04-1.62-6.4-1.62-10.06,0-3.36.58-6.54,1.74-9.55,1.16-3.01,2.76-5.64,4.79-7.9,1.91-2.1,4.25-3.78,7.02-5.03,2.77-1.25,5.6-1.88,8.48-1.88,2.16,0,4.28.28,6.36.82,2.08.55,3.87,1.25,5.38,2.09v-16.16c0-1.32-.22-2.52-.66-3.6s-1.05-1.91-1.83-2.47c-.88-.6-2.06-1.03-3.55-1.3-1.49-.27-3.1-.46-4.82-.59v-2.92l19-1.03.71.71v62.51c0,1.1.21,2.03.63,2.8.42.77,1.04,1.42,1.86,1.95.6.38,1.46.61,2.59.71s2.16.16,3.1.19v3.1ZM526.79,285.46v-27.14c-.25-.81-.66-1.69-1.22-2.63s-1.27-1.8-2.11-2.59c-.91-.78-1.97-1.43-3.19-1.95-1.22-.52-2.64-.78-4.27-.78-1.88,0-3.61.49-5.19,1.46-1.58.97-2.98,2.37-4.2,4.19-1.16,1.76-2.07,3.99-2.75,6.7-.67,2.71-1.01,5.71-1.01,9.01,0,2.63.25,5.02.75,7.17.5,2.15,1.35,4.15,2.53,6,1.1,1.76,2.5,3.17,4.2,4.23,1.7,1.07,3.73,1.6,6.08,1.6,2.5,0,4.58-.55,6.22-1.65,1.64-1.1,3.03-2.3,4.15-3.62Z"/>
    <path d="M640.27,231.05c-.88.03-2.16.22-3.86.56-1.69.35-3.07.86-4.14,1.55-1.07.72-1.8,2.21-2.21,4.47-.41,2.26-.61,5.02-.61,8.28v29.02c0,3.7-.77,6.91-2.3,9.64-1.54,2.73-3.56,4.97-6.07,6.73-2.48,1.69-5.09,2.91-7.83,3.64-2.74.74-5.37,1.11-7.88,1.11-4.01,0-7.59-.53-10.72-1.58-3.13-1.05-5.77-2.47-7.9-4.26-2.1-1.79-3.68-3.83-4.75-6.14-1.07-2.3-1.6-4.71-1.6-7.22v-39.46c0-1.1-.18-2.01-.54-2.75-.36-.74-1.09-1.42-2.19-2.05-.78-.44-1.79-.79-3.01-1.06-1.22-.27-2.23-.43-3.01-.49v-3.34h27.8v3.34c-.88.03-1.98.17-3.32.42-1.33.25-2.31.49-2.94.7-1.07.38-1.78,1-2.14,1.88s-.54,1.83-.54,2.87v36.84c0,1.79.2,3.66.59,5.62.39,1.96,1.17,3.78,2.33,5.48,1.22,1.72,2.88,3.13,4.98,4.23s4.99,1.64,8.65,1.64c3.45,0,6.34-.55,8.68-1.64,2.33-1.1,4.18-2.54,5.53-4.32,1.29-1.69,2.19-3.46,2.73-5.31.53-1.85.8-3.71.8-5.59v-27.35c0-3.48-.25-6.32-.75-8.53-.5-2.21-1.24-3.66-2.21-4.35-1.1-.78-2.6-1.39-4.49-1.83-1.9-.44-3.35-.69-4.35-.75v-3.34h27.28v3.34Z"/>
    <path d="M710.2,267.82c-.75.09-1.76.24-3.03.45-1.27.2-2.3.49-3.08.87-.94.47-1.61,1.14-2,2-.39.86-.59,1.87-.59,3.03v5.17c0,3.76.02,6.3.07,7.62.05,1.32.1,2.4.16,3.24-4.17,1.88-8.32,3.32-12.46,4.33s-8.2,1.5-12.18,1.5c-4.26,0-8.37-.8-12.32-2.4-3.95-1.6-7.4-3.87-10.35-6.82-2.98-2.98-5.35-6.6-7.1-10.87-1.76-4.27-2.63-9.04-2.63-14.31s.84-9.8,2.52-14.14c1.68-4.34,4.05-8.12,7.12-11.32,2.98-3.14,6.53-5.58,10.65-7.32,4.12-1.74,8.54-2.61,13.24-2.61,3.76,0,7.04.45,9.83,1.36,2.79.91,5.25,2.01,7.38,3.29l1.93-3.2h3.76l.42,23.33h-3.86c-.66-2.57-1.47-5.1-2.45-7.6-.97-2.49-2.23-4.73-3.77-6.7-1.54-1.98-3.41-3.55-5.62-4.73-2.21-1.18-4.86-1.76-7.93-1.76-3.36,0-6.36.68-8.99,2.05-2.64,1.37-4.93,3.4-6.87,6.09-1.92,2.61-3.39,5.85-4.43,9.74-1.04,3.89-1.55,8.24-1.55,13.04,0,4.24.51,8.23,1.53,11.98,1.02,3.75,2.5,6.99,4.45,9.72,1.95,2.79,4.38,4.99,7.3,6.59,2.92,1.6,6.23,2.4,9.94,2.4,2.76,0,5.28-.42,7.56-1.27s3.89-1.74,4.83-2.68c.25-1.63.38-3.28.4-4.94.02-1.66.02-3.07.02-4.23v-3.67c0-1.32-.18-2.48-.54-3.5-.36-1.02-1.11-1.76-2.24-2.23-1.03-.47-2.44-.82-4.21-1.06-1.77-.23-3.16-.38-4.16-.45v-3.43h29.25v3.43Z"/>
  </g>
</svg>