<?xml version="1.0" encoding="UTF-8"?>
<svg id="Ebene_1" data-name="Ebene 1" xmlns="http://www.w3.org/2000/svg" viewBox="0 0 860.28 356.37">
  <defs>
    <style>
      .cls-1 {
        fill: #fff;
      }
    </style>
  </defs>
  <g>
    <path class="cls-1" d="M13.03,340.29c.44.49.77,1.03.98,1.61s.32,1.26.32,2.03c0,1.84-.68,3.36-2.04,4.55-1.36,1.19-3.05,1.79-5.07,1.79-.93,0-1.86-.14-2.79-.43s-1.73-.64-2.41-1.05l-.63,1.07H.21l-.21-7.14h1.19c.24.88.53,1.68.86,2.39.33.71.76,1.37,1.3,1.99.51.58,1.1,1.04,1.78,1.38.68.34,1.47.51,2.37.51.68,0,1.26-.09,1.77-.26.5-.18.91-.43,1.23-.75.31-.32.55-.7.7-1.14.15-.44.23-.94.23-1.51,0-.83-.23-1.61-.7-2.33-.47-.72-1.17-1.27-2.1-1.64-.64-.25-1.37-.53-2.19-.84s-1.53-.6-2.13-.87c-1.17-.53-2.09-1.22-2.74-2.08-.65-.86-.98-1.97-.98-3.35,0-.79.16-1.53.48-2.22.32-.69.78-1.3,1.38-1.84.57-.51,1.24-.91,2.01-1.2s1.58-.43,2.42-.43c.96,0,1.82.15,2.58.44.76.29,1.45.64,2.08,1.03l.6-1h1.17l.12,6.92h-1.19c-.22-.79-.46-1.55-.73-2.28-.27-.72-.62-1.38-1.05-1.97-.42-.57-.93-1.02-1.54-1.36-.61-.34-1.35-.51-2.23-.51-.93,0-1.72.3-2.38.9s-.98,1.33-.98,2.19.21,1.65.63,2.24,1.03,1.08,1.84,1.46c.71.34,1.42.64,2.11.89.69.25,1.36.52,2,.8.59.25,1.15.54,1.7.87.54.32,1.02.7,1.42,1.13Z"/>
    <path class="cls-1" d="M23.25,350.23c-2.1,0-3.74-.7-4.92-2.09-1.19-1.39-1.78-3.26-1.78-5.6,0-1.02.16-1.97.48-2.86.32-.89.78-1.69,1.39-2.42.58-.7,1.3-1.26,2.17-1.68.87-.43,1.82-.64,2.85-.64,1.42,0,2.57.34,3.47,1.02.89.68,1.34,1.61,1.34,2.78,0,.49-.12.92-.35,1.3-.23.38-.62.57-1.16.57-.58,0-1.03-.15-1.34-.44s-.48-.62-.48-.98c0-.44.06-.89.18-1.35s.19-.8.21-1.02c-.18-.3-.44-.5-.78-.61s-.72-.15-1.12-.15c-.47,0-.92.1-1.34.3-.43.2-.84.57-1.24,1.11-.36.49-.65,1.15-.88,1.98-.22.83-.34,1.83-.34,2.98,0,1.82.4,3.31,1.21,4.46.81,1.15,1.86,1.73,3.17,1.73.95,0,1.74-.23,2.38-.69.64-.46,1.23-1.16,1.78-2.08l.94.62c-.65,1.16-1.5,2.07-2.56,2.75-1.06.68-2.15,1.01-3.27,1.01Z"/>
    <path class="cls-1" d="M45.97,349.85h-7.12v-.97c.23-.02.47-.04.75-.06s.5-.06.68-.12c.27-.09.48-.24.61-.46.13-.22.2-.51.2-.86v-7.45c0-1.03-.24-1.82-.73-2.38-.49-.56-1.08-.84-1.77-.84-.51,0-.98.08-1.42.24-.44.16-.83.36-1.17.59-.33.25-.59.49-.77.73s-.31.45-.41.62v8.33c0,.33.07.61.2.82.13.22.34.38.61.5.22.1.44.17.67.22.23.05.48.08.76.1v.97h-7.09v-.97c.22-.02.46-.04.7-.07.24-.02.45-.06.61-.11.27-.09.48-.24.61-.46s.2-.51.2-.86v-16.87c0-.33-.08-.67-.23-1-.15-.33-.35-.58-.59-.75-.18-.13-.49-.22-.93-.27-.45-.05-.81-.09-1.08-.11v-.94l5.36-.32.21.22v10.1h.06c.32-.32.62-.61.88-.86.26-.25.61-.51,1.04-.79.37-.23.81-.43,1.32-.59.5-.16,1.07-.23,1.7-.23,1.29,0,2.29.41,2.99,1.23.7.82,1.04,1.99,1.04,3.53v7.53c0,.34.06.62.18.83.12.21.33.37.61.49.23.09.43.15.61.2.18.04.42.08.72.1v.97Z"/>
    <path class="cls-1" d="M54.5,349.85h-7.06v-.97c.22-.02.46-.04.72-.07.25-.02.46-.06.63-.11.27-.09.48-.24.62-.46s.21-.51.21-.86v-16.78c0-.35-.08-.68-.23-.99s-.35-.55-.59-.73c-.18-.12-.5-.23-.97-.32-.47-.1-.85-.16-1.13-.18v-.94l5.45-.32.21.22v19.87c0,.34.06.62.19.84.13.22.33.39.62.51.22.1.43.17.64.22.21.05.45.08.71.1v.97Z"/>
    <path class="cls-1" d="M71.84,349.59l-4.73.32-.22-.21v-1.84h-.09c-.23.24-.5.51-.79.79-.29.28-.63.53-1.01.76-.44.26-.87.46-1.28.6-.41.14-.99.21-1.74.21-1.28,0-2.26-.42-2.93-1.25-.67-.84-1-2.05-1-3.65v-6.92c0-.35-.07-.65-.2-.89-.13-.24-.33-.45-.58-.62-.18-.12-.4-.2-.67-.26s-.55-.09-.84-.11v-.97l4.83-.35.22.21v10.06c0,1.05.23,1.84.7,2.36.47.53,1.03.79,1.69.79.54,0,1.02-.08,1.44-.25.42-.17.77-.36,1.06-.59.26-.21.5-.42.7-.65.2-.23.35-.44.46-.64v-8.2c0-.32-.07-.61-.21-.86-.14-.25-.33-.46-.57-.64-.18-.12-.44-.19-.79-.21s-.74-.05-1.17-.07v-.97l5.27-.35.22.21v11.49c0,.33.07.62.21.85.14.23.33.44.57.6.18.11.39.18.63.21.24.03.51.06.81.07v.97ZM62.27,329.82c0,.5-.17.92-.51,1.28-.34.35-.75.53-1.23.53s-.89-.18-1.23-.53c-.34-.35-.51-.78-.51-1.28s.17-.92.51-1.28c.34-.35.75-.53,1.23-.53s.89.18,1.23.53c.34.35.51.78.51,1.28ZM68.58,329.82c0,.5-.17.92-.51,1.28-.34.35-.75.53-1.23.53s-.89-.18-1.23-.53c-.34-.35-.51-.78-.51-1.28s.17-.92.51-1.28c.34-.35.75-.53,1.23-.53s.89.18,1.23.53c.34.35.51.78.51,1.28Z"/>
    <path class="cls-1" d="M83.18,342.76c.4.35.71.76.93,1.22s.32,1.02.32,1.69c0,1.34-.5,2.44-1.51,3.29-1,.85-2.3,1.28-3.9,1.28-.84,0-1.62-.15-2.33-.46-.71-.3-1.22-.58-1.52-.84l-.29.95h-1.1l-.15-5.04h1.01c.08.38.24.83.5,1.34.25.51.56.97.92,1.39.38.43.84.8,1.37,1.09.53.29,1.13.44,1.8.44.94,0,1.66-.21,2.17-.64s.76-1.04.76-1.84c0-.41-.08-.77-.24-1.06-.16-.3-.4-.56-.71-.79-.32-.22-.72-.43-1.19-.61-.47-.18-.99-.36-1.57-.54-.46-.14-.97-.33-1.53-.57s-1.05-.52-1.45-.84c-.43-.34-.78-.76-1.06-1.26-.27-.5-.41-1.09-.41-1.76,0-1.18.44-2.19,1.32-3.01s2.06-1.23,3.54-1.23c.57,0,1.15.07,1.74.22.59.15,1.07.32,1.45.53l.34-.76h1.06l.22,4.66h-1.01c-.21-1.04-.65-1.89-1.33-2.54-.68-.65-1.51-.98-2.49-.98-.8,0-1.43.2-1.89.61s-.69.89-.69,1.46c0,.44.08.81.23,1.1s.38.54.68.75c.29.2.66.38,1.11.55s1,.36,1.65.58c.65.21,1.26.45,1.83.72.57.27,1.04.58,1.42.91Z"/>
    <path class="cls-1" d="M96.18,342.76c.4.35.71.76.93,1.22s.32,1.02.32,1.69c0,1.34-.5,2.44-1.51,3.29-1,.85-2.3,1.28-3.9,1.28-.84,0-1.62-.15-2.33-.46-.71-.3-1.22-.58-1.52-.84l-.29.95h-1.1l-.15-5.04h1.01c.08.38.24.83.5,1.34.25.51.56.97.92,1.39.38.43.84.8,1.37,1.09.53.29,1.13.44,1.8.44.94,0,1.66-.21,2.17-.64s.76-1.04.76-1.84c0-.41-.08-.77-.24-1.06-.16-.3-.4-.56-.71-.79-.32-.22-.72-.43-1.19-.61-.47-.18-.99-.36-1.57-.54-.46-.14-.97-.33-1.53-.57s-1.05-.52-1.45-.84c-.43-.34-.78-.76-1.06-1.26-.27-.5-.41-1.09-.41-1.76,0-1.18.44-2.19,1.32-3.01s2.06-1.23,3.54-1.23c.57,0,1.15.07,1.74.22.59.15,1.07.32,1.45.53l.34-.76h1.06l.22,4.66h-1.01c-.21-1.04-.65-1.89-1.33-2.54-.68-.65-1.51-.98-2.49-.98-.8,0-1.43.2-1.89.61s-.69.89-.69,1.46c0,.44.08.81.23,1.1s.38.54.68.75c.29.2.66.38,1.11.55s1,.36,1.65.58c.65.21,1.26.45,1.83.72.57.27,1.04.58,1.42.91Z"/>
    <path class="cls-1" d="M112.48,346.44c-.61,1.16-1.42,2.08-2.44,2.76s-2.19,1.03-3.51,1.03c-1.17,0-2.19-.21-3.06-.62-.88-.41-1.6-.97-2.17-1.67s-.99-1.53-1.27-2.47c-.28-.94-.42-1.93-.42-2.98,0-.94.15-1.86.45-2.77.3-.91.74-1.72,1.31-2.45.56-.7,1.25-1.26,2.08-1.68.83-.43,1.76-.64,2.78-.64s1.96.17,2.72.5,1.37.79,1.84,1.37c.45.55.79,1.19,1.01,1.94.22.74.33,1.55.33,2.42v.97h-9.59c0,.95.09,1.82.27,2.59.18.77.47,1.46.86,2.05.38.57.88,1.02,1.5,1.35s1.35.49,2.2.49,1.62-.2,2.25-.61c.63-.41,1.24-1.14,1.83-2.21l1.03.63ZM109.23,340.92c0-.55-.05-1.13-.14-1.76s-.24-1.15-.45-1.57c-.23-.45-.53-.81-.92-1.1s-.9-.42-1.51-.42c-1.03,0-1.88.43-2.56,1.28-.68.85-1.05,2.04-1.11,3.57h6.7Z"/>
    <path class="cls-1" d="M120.94,349.85h-7.06v-.97c.22-.02.46-.04.72-.07.25-.02.46-.06.63-.11.27-.09.48-.24.62-.46s.21-.51.21-.86v-16.78c0-.35-.08-.68-.23-.99s-.35-.55-.59-.73c-.18-.12-.5-.23-.97-.32-.47-.1-.85-.16-1.13-.18v-.94l5.45-.32.21.22v19.87c0,.34.06.62.19.84.13.22.33.39.62.51.22.1.43.17.64.22.21.05.45.08.71.1v.97Z"/>
    <path class="cls-1" d="M133.54,328.88c0,.44-.12.81-.35,1.12s-.59.46-1.07.46c-.3,0-.57-.06-.8-.19-.23-.13-.44-.3-.64-.51-.2-.21-.38-.46-.54-.73s-.31-.49-.43-.66c-.66.03-1.16.49-1.52,1.37-.36.88-.54,2.29-.54,4.23v1.48h3.73v1.41h-3.73v10.4c0,.34.07.62.2.84.13.22.34.38.62.48.23.09.55.16.94.21.39.05.73.09,1.01.11v.97h-7.64v-.97c.23-.02.46-.04.7-.06s.45-.06.62-.12c.27-.09.48-.24.61-.46.13-.22.2-.51.2-.86v-10.54h-2.86v-1.41h2.86v-.92c0-2.2.57-3.98,1.71-5.34,1.14-1.36,2.57-2.05,4.28-2.05.87,0,1.53.17,1.97.51.44.34.66.76.66,1.25Z"/>
    <path class="cls-1" d="M145.4,346.44c-.61,1.16-1.42,2.08-2.44,2.76s-2.19,1.03-3.51,1.03c-1.17,0-2.19-.21-3.06-.62-.88-.41-1.6-.97-2.17-1.67s-.99-1.53-1.27-2.47c-.28-.94-.42-1.93-.42-2.98,0-.94.15-1.86.45-2.77.3-.91.74-1.72,1.31-2.45.56-.7,1.25-1.26,2.08-1.68.83-.43,1.76-.64,2.78-.64s1.96.17,2.72.5c.75.33,1.37.79,1.84,1.37.45.55.79,1.19,1.01,1.94.22.74.33,1.55.33,2.42v.97h-9.59c0,.95.09,1.82.27,2.59.18.77.47,1.46.86,2.05.38.57.88,1.02,1.5,1.35s1.35.49,2.2.49,1.62-.2,2.25-.61c.63-.41,1.24-1.14,1.83-2.21l1.03.63ZM142.16,340.92c0-.55-.05-1.13-.14-1.76s-.24-1.15-.45-1.57c-.23-.45-.53-.81-.92-1.1s-.9-.42-1.51-.42c-1.03,0-1.88.43-2.56,1.28-.68.85-1.05,2.04-1.11,3.57h6.7Z"/>
    <path class="cls-1" d="M158.17,337.24c0,.5-.12.94-.37,1.33-.24.39-.62.58-1.13.58-.55,0-.97-.14-1.26-.43s-.43-.6-.43-.94c0-.22.02-.41.05-.59s.07-.35.1-.53c-.46,0-1,.19-1.62.56s-1.14.9-1.57,1.59v8.43c0,.34.07.62.2.84.13.22.34.38.62.48.24.1.56.17.95.22.39.05.72.08,1.01.1v.97h-7.64v-.97c.23-.02.46-.04.7-.06s.45-.06.62-.12c.27-.09.48-.24.61-.46.13-.22.2-.51.2-.86v-8.93c0-.3-.07-.6-.21-.89-.14-.29-.34-.53-.59-.7-.19-.12-.41-.2-.66-.26-.26-.05-.53-.09-.82-.11v-.97l4.82-.32.21.21v2.04h.07c.61-.79,1.28-1.39,2.03-1.81s1.42-.62,2.04-.62,1.12.2,1.5.6c.39.4.58.94.58,1.62Z"/>
    <path class="cls-1" d="M168.34,349.22c-.64.26-1.24.49-1.81.67-.57.18-1.26.27-2.09.27-1.21,0-2.07-.31-2.56-.92s-.74-1.48-.74-2.59v-9.81h-2.61v-1.41h2.67v-4.51h2.67v4.51h4.16v1.41h-4.13v8.09c0,.61.02,1.11.07,1.52.04.41.15.76.32,1.06.16.28.39.5.7.65.31.15.73.22,1.26.22.24,0,.6-.02,1.08-.07.47-.04.81-.1,1.01-.17v1.07Z"/>
    <path class="cls-1" d="M176.8,349.85h-6.99v-.97c.23-.02.46-.04.7-.06s.45-.06.62-.12c.27-.09.48-.24.61-.46.13-.22.2-.51.2-.86v-8.93c0-.31-.07-.6-.21-.86-.14-.26-.34-.48-.59-.65-.19-.12-.46-.22-.81-.3s-.68-.13-.97-.15v-.97l5.11-.32.21.21v11.81c0,.34.07.63.2.85.13.23.34.39.62.5.21.09.42.16.63.21s.43.09.69.11v.97ZM174.97,329.48c0,.56-.18,1.04-.55,1.46-.37.42-.82.62-1.36.62-.5,0-.93-.2-1.3-.59-.37-.4-.55-.85-.55-1.36,0-.54.18-1.01.55-1.41.37-.4.8-.6,1.3-.6.56,0,1.02.19,1.37.57.36.38.54.81.54,1.31Z"/>
    <path class="cls-1" d="M191,348.35c.39.37.7.79.92,1.26s.34,1.05.34,1.75-.15,1.35-.46,1.96c-.3.61-.76,1.14-1.38,1.59-.66.46-1.44.82-2.35,1.07s-2.04.38-3.38.38c-2.19,0-3.83-.32-4.92-.96-1.09-.64-1.63-1.58-1.63-2.81,0-1,.39-1.79,1.17-2.36s1.78-.89,3-.94v-.21c-.29-.09-.6-.2-.91-.33-.31-.13-.58-.29-.81-.46-.26-.21-.46-.45-.62-.73-.16-.28-.23-.62-.23-1.04,0-.52.18-1,.55-1.43.37-.44.92-.81,1.67-1.12v-.22c-.94-.44-1.67-1.01-2.19-1.7-.52-.69-.78-1.49-.78-2.4,0-1.37.51-2.5,1.53-3.38,1.02-.88,2.33-1.32,3.93-1.32.44,0,.88.04,1.31.13.44.09.88.2,1.33.34h5.05v1.41h-3.41v.09c.36.42.63.89.81,1.39.18.51.26,1.01.26,1.5,0,1.27-.52,2.35-1.55,3.23s-2.23,1.32-3.61,1.32h-1.78c-.23.08-.46.22-.7.43-.25.21-.37.48-.37.84s.1.64.31.83c.21.19.46.32.75.39.28.08.61.13.99.15s.77.03,1.17.04c.43,0,1.02.04,1.77.09.75.05,1.28.08,1.59.09.45.02.9.13,1.36.32.46.2.87.47,1.24.81ZM189.86,351.91c0-.55-.13-1-.38-1.35-.26-.35-.64-.59-1.16-.72-.27-.04-.84-.08-1.69-.13-.85-.05-1.84-.07-2.97-.07-1.06.21-1.81.55-2.25,1.04-.45.48-.67,1.11-.67,1.87,0,.34.07.67.22.98.15.31.4.6.76.87.34.25.8.46,1.38.62.58.16,1.28.24,2.11.24,1.44,0,2.57-.28,3.4-.83.83-.55,1.24-1.39,1.24-2.52ZM187.04,339.76c0-1.15-.23-2.06-.7-2.74s-1.12-1.02-1.96-1.02c-.46,0-.85.1-1.18.29-.33.19-.59.46-.8.81-.2.32-.34.71-.42,1.17-.08.46-.12.92-.12,1.4,0,1.09.24,1.97.71,2.66.47.69,1.09,1.03,1.84,1.03.84,0,1.49-.34,1.95-1.02.46-.68.68-1.54.68-2.58Z"/>
    <path class="cls-1" d="M208.61,342.6c0,2.17-.69,4-2.06,5.48-1.37,1.48-2.96,2.22-4.77,2.22-.79,0-1.57-.12-2.34-.37-.77-.24-1.49-.57-2.17-.98l-1.09,1.69-.91-.21c.05-.72.08-1.6.1-2.62.02-1.02.03-2,.03-2.95v-14.34c0-.33-.08-.67-.23-1-.15-.33-.35-.57-.58-.72-.19-.13-.5-.22-.93-.29s-.79-.11-1.05-.12v-.94l5.32-.32.21.22v9.55l.1.03c.61-.65,1.27-1.13,1.99-1.45.72-.32,1.43-.48,2.12-.48,1.78,0,3.27.7,4.46,2.11,1.19,1.41,1.79,3.25,1.79,5.51ZM205.54,342.7c0-.72-.08-1.46-.23-2.22s-.4-1.41-.73-1.97c-.33-.57-.77-1.03-1.31-1.38-.54-.35-1.19-.53-1.94-.53-.69,0-1.29.13-1.8.4-.51.27-.98.63-1.39,1.09v8.43c.06.23.17.51.35.82s.4.61.7.9c.29.27.63.5,1,.67s.83.26,1.37.26c1.19,0,2.16-.58,2.89-1.73.73-1.16,1.1-2.74,1.1-4.74Z"/>
    <path class="cls-1" d="M224.47,349.59c-.46.17-.86.3-1.21.4-.35.1-.74.15-1.18.15-.76,0-1.37-.18-1.83-.54-.46-.36-.75-.88-.87-1.56h-.09c-.64.7-1.32,1.24-2.05,1.61-.73.37-1.61.56-2.64.56-1.09,0-1.98-.33-2.68-1-.7-.67-1.05-1.54-1.05-2.61,0-.56.08-1.06.23-1.5.16-.44.39-.84.7-1.19.24-.29.57-.56.97-.79s.78-.41,1.13-.55c.44-.17,1.33-.48,2.68-.93s2.25-.8,2.72-1.06v-1.45c0-.13-.03-.37-.08-.73s-.17-.7-.35-1.03c-.2-.36-.47-.68-.83-.95s-.86-.4-1.52-.4c-.45,0-.87.08-1.26.23-.39.15-.66.31-.81.48,0,.2.05.48.14.87.09.38.14.73.14,1.06,0,.34-.15.66-.46.94-.31.28-.74.43-1.28.43-.49,0-.85-.17-1.08-.52-.23-.35-.35-.74-.35-1.17s.16-.88.48-1.29c.32-.41.73-.78,1.24-1.1.44-.27.97-.51,1.6-.7.63-.19,1.24-.29,1.84-.29.82,0,1.54.06,2.15.17.61.11,1.17.36,1.67.73.5.36.88.85,1.14,1.48.26.62.39,1.42.39,2.4,0,1.4-.01,2.64-.04,3.72-.03,1.08-.04,2.26-.04,3.55,0,.38.07.69.2.91.13.23.34.42.61.57.15.09.38.14.7.15s.64.01.98.01v.94ZM219.35,341.83c-.83.25-1.56.49-2.19.72s-1.21.53-1.75.88c-.49.33-.88.73-1.16,1.19-.28.46-.43,1-.43,1.63,0,.81.21,1.41.64,1.8.43.38.97.57,1.62.57.7,0,1.31-.17,1.84-.51s.97-.74,1.34-1.2l.09-5.08Z"/>
    <path class="cls-1" d="M241.44,349.59l-4.73.32-.22-.21v-1.84h-.09c-.23.24-.5.51-.79.79-.29.28-.63.53-1.01.76-.44.26-.87.46-1.28.6-.41.14-.99.21-1.74.21-1.28,0-2.26-.42-2.93-1.25-.67-.84-1-2.05-1-3.65v-6.92c0-.35-.07-.65-.2-.89-.13-.24-.33-.45-.58-.62-.18-.12-.4-.2-.67-.26s-.55-.09-.84-.11v-.97l4.83-.35.22.21v10.06c0,1.05.23,1.84.7,2.36s1.03.79,1.69.79c.54,0,1.02-.08,1.44-.25.42-.17.77-.36,1.06-.59.26-.21.5-.42.7-.65.2-.23.35-.44.46-.64v-8.2c0-.32-.07-.61-.21-.86-.14-.25-.33-.46-.57-.64-.18-.12-.44-.19-.79-.21s-.74-.05-1.17-.07v-.97l5.27-.35.22.21v11.49c0,.33.07.62.21.85.14.23.33.44.57.6.18.11.39.18.63.21.24.03.51.06.81.07v.97Z"/>
    <path class="cls-1" d="M259.41,343.04h-8.75v-2.32h8.75v2.32Z"/>
    <path class="cls-1" d="M286.87,343.71l-.4,6.14h-17.3v-1.04c.29-.02.69-.06,1.17-.12s.81-.13.95-.2c.31-.15.53-.34.65-.57s.18-.53.18-.9v-14.98c0-.32-.05-.61-.16-.86-.11-.25-.33-.45-.68-.61-.26-.13-.62-.24-1.06-.34-.45-.1-.8-.16-1.06-.18v-1.04h16.13v5.02h-1.1c-.2-.74-.62-1.53-1.27-2.37-.65-.84-1.27-1.29-1.86-1.37-.3-.04-.67-.07-1.09-.09s-.9-.03-1.44-.03h-3.27v8.28h2.35c.75,0,1.3-.07,1.65-.21.35-.14.65-.38.92-.71.22-.28.4-.66.55-1.14.15-.47.25-.92.3-1.34h1.1v8.17h-1.1c-.04-.47-.14-.97-.32-1.49-.17-.52-.35-.9-.54-1.14-.3-.38-.65-.63-1.04-.75s-.9-.18-1.53-.18h-2.35v6.25c0,.63.04,1.12.13,1.48.09.36.26.64.51.82.25.19.6.31,1.04.36s1.07.08,1.88.08h1.28c.53,0,.97-.02,1.34-.06.37-.04.76-.11,1.15-.21.4-.1.68-.24.84-.42.45-.47.92-1.18,1.42-2.14.49-.95.81-1.66.95-2.11h1.06Z"/>
    <path class="cls-1" d="M302.57,349.85h-6.64v-.97c.44-.05.82-.1,1.13-.15.31-.05.46-.18.46-.38,0-.09-.05-.23-.15-.41-.1-.19-.2-.36-.29-.51-.25-.38-.58-.89-1.01-1.54s-.95-1.41-1.57-2.3c-.51.64-.98,1.26-1.41,1.86-.43.6-.88,1.24-1.35,1.92-.07.1-.14.22-.21.37-.07.15-.11.26-.11.35,0,.22.14.39.42.54.28.14.7.24,1.26.29v.94h-5.36v-.91c.67-.2,1.2-.43,1.61-.71.41-.28.78-.62,1.12-1.04.3-.39.73-.93,1.27-1.62.54-.69,1.25-1.62,2.11-2.8-.5-.71-1.11-1.58-1.83-2.61-.72-1.03-1.31-1.89-1.78-2.57-.26-.37-.55-.67-.88-.9-.33-.23-.79-.35-1.39-.35v-.97h6.3v.97c-.31,0-.62.02-.92.06-.3.04-.45.13-.45.26,0,.09.03.19.09.29s.13.23.22.35c.22.33.55.85,1,1.54.45.69.95,1.43,1.47,2.2.34-.47.74-1.02,1.2-1.64.46-.63.88-1.22,1.26-1.79.04-.07.08-.15.12-.26.04-.1.06-.2.06-.3,0-.21-.17-.37-.51-.49-.34-.12-.66-.21-.97-.26v-.94h5.35v.91c-.75.2-1.34.43-1.76.7-.42.27-.78.58-1.07.93-.32.4-.71.9-1.15,1.48s-1.07,1.41-1.87,2.47c.89,1.25,1.61,2.28,2.17,3.08s1.12,1.63,1.69,2.48c.28.43.6.77.95,1.02.35.25.82.39,1.43.43v.97Z"/>
    <path class="cls-1" d="M317.04,337.09c.58.69,1.03,1.48,1.34,2.39.32.91.48,1.94.48,3.11s-.19,2.19-.57,3.14-.89,1.75-1.51,2.42c-.66.68-1.39,1.19-2.19,1.56-.8.36-1.65.54-2.56.54s-1.59-.1-2.14-.29-1.01-.43-1.37-.69h-.12v4.36c0,.35.07.65.21.88.14.23.35.41.63.52.23.09.57.17,1.01.26.44.08.8.13,1.08.14v.97h-8.09v-.97c.3-.02.6-.04.88-.07.28-.03.54-.08.76-.15.29-.1.5-.27.62-.51s.18-.53.18-.87v-15.41c0-.29-.07-.58-.22-.85s-.34-.49-.57-.66c-.18-.12-.42-.21-.73-.27s-.62-.11-.91-.12v-.97l4.93-.32.21.18v1.63l.12.03c.51-.59,1.14-1.08,1.89-1.47.75-.39,1.5-.59,2.25-.59.9,0,1.73.19,2.47.57.75.38,1.39.9,1.93,1.54ZM314.64,347.5c.39-.61.68-1.31.87-2.11.19-.8.28-1.7.28-2.69,0-.72-.08-1.46-.23-2.22s-.4-1.41-.73-1.97c-.33-.57-.77-1.03-1.31-1.38-.54-.35-1.19-.53-1.94-.53s-1.34.16-1.85.48c-.51.32-.95.7-1.32,1.14v8.56c.09.26.23.54.43.82.2.28.42.53.67.73.3.24.63.44.98.59.35.15.78.23,1.29.23.55,0,1.08-.14,1.59-.43.51-.29.94-.7,1.28-1.23Z"/>
    <path class="cls-1" d="M335.12,342.46c0,1.02-.16,2.02-.48,3-.32.98-.78,1.82-1.38,2.5-.68.78-1.46,1.37-2.35,1.75-.89.38-1.89.57-3,.57-.92,0-1.8-.17-2.63-.52-.83-.35-1.57-.85-2.22-1.52-.64-.66-1.14-1.46-1.52-2.4-.38-.94-.57-2-.57-3.18,0-2.26.66-4.11,1.98-5.55,1.32-1.44,3.05-2.16,5.18-2.16s3.7.68,5.02,2.05c1.32,1.37,1.98,3.18,1.98,5.46ZM332.08,342.49c0-.73-.07-1.51-.22-2.33-.15-.82-.37-1.51-.66-2.08-.31-.61-.73-1.09-1.24-1.46-.51-.37-1.13-.55-1.87-.55s-1.4.19-1.93.56c-.53.37-.97.88-1.3,1.53-.31.6-.53,1.28-.66,2.04-.13.76-.19,1.5-.19,2.22,0,.94.08,1.81.23,2.61.15.8.39,1.51.73,2.14.33.63.75,1.12,1.26,1.48.5.36,1.13.54,1.88.54,1.23,0,2.2-.59,2.91-1.78.72-1.18,1.07-2.82,1.07-4.91Z"/>
    <path class="cls-1" d="M348.29,337.24c0,.5-.12.94-.37,1.33-.24.39-.62.58-1.13.58-.55,0-.97-.14-1.26-.43s-.43-.6-.43-.94c0-.22.02-.41.05-.59s.07-.35.1-.53c-.46,0-1,.19-1.62.56-.62.37-1.14.9-1.57,1.59v8.43c0,.34.07.62.2.84.13.22.34.38.62.48.24.1.56.17.95.22.39.05.72.08,1.01.1v.97h-7.64v-.97c.23-.02.46-.04.7-.06s.45-.06.62-.12c.27-.09.48-.24.61-.46.13-.22.2-.51.2-.86v-8.93c0-.3-.07-.6-.21-.89-.14-.29-.34-.53-.59-.7-.19-.12-.41-.2-.66-.26-.26-.05-.53-.09-.82-.11v-.97l4.82-.32.21.21v2.04h.07c.61-.79,1.28-1.39,2.03-1.81s1.42-.62,2.04-.62,1.12.2,1.5.6c.39.4.58.94.58,1.62Z"/>
    <path class="cls-1" d="M358.47,349.22c-.64.26-1.24.49-1.81.67-.57.18-1.26.27-2.09.27-1.21,0-2.07-.31-2.56-.92s-.74-1.48-.74-2.59v-9.81h-2.61v-1.41h2.67v-4.51h2.67v4.51h4.16v1.41h-4.13v8.09c0,.61.02,1.11.07,1.52.04.41.15.76.32,1.06.16.28.39.5.7.65.31.15.73.22,1.26.22.24,0,.6-.02,1.08-.07.47-.04.81-.1,1.01-.17v1.07Z"/>
    <path class="cls-1" d="M382.68,349.59l-4.73.32-.22-.21v-1.84h-.09c-.23.24-.5.51-.79.79-.29.28-.63.53-1.01.76-.44.26-.87.46-1.28.6-.41.14-.99.21-1.74.21-1.28,0-2.26-.42-2.93-1.25-.67-.84-1-2.05-1-3.65v-6.92c0-.35-.07-.65-.2-.89-.13-.24-.33-.45-.58-.62-.18-.12-.4-.2-.67-.26s-.55-.09-.84-.11v-.97l4.83-.35.22.21v10.06c0,1.05.23,1.84.7,2.36.47.53,1.03.79,1.69.79.54,0,1.02-.08,1.44-.25.42-.17.77-.36,1.06-.59.26-.21.5-.42.7-.65.2-.23.35-.44.46-.64v-8.2c0-.32-.07-.61-.21-.86-.14-.25-.33-.46-.57-.64-.18-.12-.44-.19-.79-.21s-.74-.05-1.17-.07v-.97l5.27-.35.22.21v11.49c0,.33.07.62.21.85.14.23.33.44.57.6.18.11.39.18.63.21.24.03.51.06.81.07v.97Z"/>
    <path class="cls-1" d="M400.45,349.85h-7.08v-.97c.23-.02.47-.04.74-.06s.49-.06.67-.12c.27-.09.48-.24.61-.46.13-.22.2-.51.2-.86v-7.45c0-1.03-.24-1.82-.73-2.38-.49-.56-1.08-.84-1.77-.84-.52,0-1,.08-1.43.24-.43.16-.81.36-1.15.59-.32.23-.58.47-.77.73-.19.26-.33.47-.42.62v8.33c0,.33.07.61.21.82.14.22.34.38.62.5.21.1.43.17.67.22.24.05.49.08.74.1v.97h-7.09v-.97c.23-.02.46-.04.7-.06s.45-.06.62-.12c.27-.09.48-.24.61-.46.13-.22.2-.51.2-.86v-8.93c0-.33-.07-.64-.21-.92-.14-.28-.34-.51-.59-.68-.19-.12-.41-.2-.66-.26-.26-.05-.53-.09-.82-.11v-.97l4.82-.32.21.21v2.04h.07c.23-.23.53-.52.88-.84.35-.33.69-.59,1-.8.36-.23.79-.43,1.29-.59.5-.16,1.06-.23,1.69-.23,1.39,0,2.42.43,3.09,1.3.67.87,1.01,2.02,1.01,3.46v7.53c0,.34.06.62.18.83s.32.37.6.49c.23.1.44.17.61.21.17.04.41.07.71.09v.97Z"/>
    <path class="cls-1" d="M418.09,349.59l-5.07.32-.22-.21v-1.35l-.12-.03c-.51.57-1.14,1.03-1.88,1.39-.75.36-1.52.54-2.31.54s-1.62-.18-2.38-.55c-.77-.37-1.44-.88-2-1.55-.58-.68-1.03-1.49-1.37-2.44-.34-.95-.51-2-.51-3.14,0-1.05.18-2.04.54-2.98.36-.94.86-1.76,1.5-2.47.6-.66,1.33-1.18,2.19-1.57.86-.39,1.75-.59,2.65-.59.67,0,1.34.09,1.99.26s1.21.39,1.68.65v-5.05c0-.41-.07-.79-.21-1.13s-.33-.6-.57-.77c-.27-.19-.64-.32-1.11-.4s-.97-.14-1.51-.18v-.91l5.93-.32.22.22v19.52c0,.34.07.63.2.87.13.24.33.44.58.61.19.12.46.19.81.22s.68.05.97.06v.97ZM412.78,347.05v-8.47c-.08-.25-.21-.53-.38-.82s-.4-.56-.66-.81c-.28-.24-.62-.45-1-.61-.38-.16-.83-.24-1.33-.24-.59,0-1.13.15-1.62.46s-.93.74-1.31,1.31c-.36.55-.65,1.25-.86,2.09-.21.85-.31,1.78-.31,2.81,0,.82.08,1.57.23,2.24.16.67.42,1.3.79,1.87.34.55.78.99,1.31,1.32.53.33,1.17.5,1.9.5.78,0,1.43-.17,1.94-.51.51-.34.95-.72,1.3-1.13Z"/>
    <path class="cls-1" d="M436.24,349.85h-9.38v-1.04c.26-.02.65-.05,1.15-.09.5-.04.85-.1,1.06-.18.32-.13.56-.3.7-.52.15-.22.22-.53.22-.92v-15.1c0-.34-.05-.63-.16-.86-.11-.23-.36-.42-.76-.58-.29-.12-.66-.23-1.11-.33-.45-.1-.81-.16-1.09-.18v-1.04h9.38v1.04c-.3,0-.67.05-1.09.11-.42.06-.79.14-1.1.24-.37.12-.62.31-.75.57-.13.26-.19.56-.19.88v15.08c0,.32.07.61.21.86.14.25.38.45.73.59.21.08.54.16,1.01.26s.86.14,1.18.15v1.04Z"/>
    <path class="cls-1" d="M463.25,349.85h-7.05v-.97c.23-.02.45-.04.68-.06s.43-.06.61-.12c.27-.09.48-.24.61-.46.13-.22.2-.51.2-.86v-7.48c0-1.02-.23-1.8-.7-2.36-.47-.55-1.05-.83-1.74-.83-.48,0-.93.07-1.35.22-.42.15-.81.35-1.16.62-.28.22-.52.45-.71.7-.19.25-.34.46-.43.62v8.36c0,.34.06.62.18.84.12.22.32.39.6.51.23.09.43.15.61.2.18.04.42.08.71.1v.97h-6.9v-.97c.23-.02.44-.04.65-.06.21-.02.4-.06.58-.12.27-.09.48-.24.61-.46.13-.22.2-.51.2-.86v-7.48c0-1.02-.23-1.8-.7-2.36s-1.05-.83-1.74-.83c-.48,0-.93.08-1.35.23-.42.15-.81.36-1.16.62-.28.22-.52.46-.72.73-.2.27-.34.47-.44.61v8.3c0,.33.07.61.21.84s.34.4.62.51c.21.1.42.17.63.22.21.05.46.08.72.1v.97h-7.03v-.97c.23-.02.46-.04.7-.06.24-.02.45-.06.62-.12.27-.09.48-.24.61-.46.13-.22.2-.51.2-.86v-8.99c0-.31-.07-.59-.21-.84s-.34-.46-.59-.64c-.19-.12-.42-.21-.69-.29-.27-.07-.56-.12-.85-.14v-.97l4.85-.32.21.21v2.07h.1c.24-.24.54-.53.9-.87s.68-.6.98-.81c.34-.23.77-.43,1.29-.59.51-.16,1.07-.23,1.67-.23.94,0,1.75.25,2.42.76.68.5,1.16,1.11,1.45,1.83.35-.34.66-.64.93-.9.27-.26.62-.54,1.06-.83.37-.25.81-.46,1.31-.62.5-.16,1.06-.23,1.68-.23,1.22,0,2.19.4,2.9,1.2s1.07,2.04,1.07,3.7v7.36c0,.34.06.62.18.84.12.22.32.39.6.51.23.09.45.15.67.2.22.04.47.08.74.1v.97Z"/>
    <path class="cls-1" d="M478.2,337.09c.58.69,1.03,1.48,1.34,2.39.32.91.48,1.94.48,3.11s-.19,2.19-.57,3.14-.89,1.75-1.51,2.42c-.66.68-1.39,1.19-2.19,1.56-.8.36-1.65.54-2.56.54s-1.59-.1-2.14-.29-1.01-.43-1.37-.69h-.12v4.36c0,.35.07.65.21.88.14.23.35.41.63.52.23.09.57.17,1.01.26.44.08.8.13,1.08.14v.97h-8.09v-.97c.3-.02.6-.04.88-.07.28-.03.54-.08.76-.15.29-.1.5-.27.62-.51s.18-.53.18-.87v-15.41c0-.29-.07-.58-.22-.85s-.34-.49-.57-.66c-.18-.12-.42-.21-.73-.27s-.62-.11-.91-.12v-.97l4.93-.32.21.18v1.63l.12.03c.51-.59,1.14-1.08,1.89-1.47.75-.39,1.5-.59,2.25-.59.9,0,1.73.19,2.47.57.75.38,1.39.9,1.93,1.54ZM475.81,347.5c.39-.61.68-1.31.87-2.11.19-.8.28-1.7.28-2.69,0-.72-.08-1.46-.23-2.22s-.4-1.41-.73-1.97c-.33-.57-.77-1.03-1.31-1.38-.54-.35-1.19-.53-1.94-.53s-1.34.16-1.85.48c-.51.32-.95.7-1.32,1.14v8.56c.09.26.23.54.43.82.2.28.42.53.67.73.3.24.63.44.98.59.35.15.78.23,1.29.23.55,0,1.08-.14,1.59-.43.51-.29.94-.7,1.28-1.23Z"/>
    <path class="cls-1" d="M496.28,342.46c0,1.02-.16,2.02-.48,3-.32.98-.78,1.82-1.38,2.5-.68.78-1.46,1.37-2.35,1.75-.89.38-1.89.57-3,.57-.92,0-1.8-.17-2.63-.52-.83-.35-1.57-.85-2.22-1.52-.64-.66-1.14-1.46-1.52-2.4-.38-.94-.57-2-.57-3.18,0-2.26.66-4.11,1.98-5.55,1.32-1.44,3.05-2.16,5.18-2.16s3.7.68,5.02,2.05c1.32,1.37,1.98,3.18,1.98,5.46ZM493.24,342.49c0-.73-.07-1.51-.22-2.33-.15-.82-.37-1.51-.66-2.08-.31-.61-.73-1.09-1.24-1.46-.51-.37-1.13-.55-1.87-.55s-1.4.19-1.93.56c-.53.37-.97.88-1.3,1.53-.31.6-.53,1.28-.66,2.04-.13.76-.19,1.5-.19,2.22,0,.94.08,1.81.23,2.61.15.8.39,1.51.73,2.14.33.63.75,1.12,1.26,1.48.5.36,1.13.54,1.88.54,1.23,0,2.2-.59,2.91-1.78.72-1.18,1.07-2.82,1.07-4.91Z"/>
    <path class="cls-1" d="M509.45,337.24c0,.5-.12.94-.37,1.33-.24.39-.62.58-1.13.58-.55,0-.97-.14-1.26-.43s-.43-.6-.43-.94c0-.22.02-.41.05-.59s.07-.35.1-.53c-.46,0-1,.19-1.62.56s-1.14.9-1.57,1.59v8.43c0,.34.07.62.2.84.13.22.34.38.62.48.24.1.56.17.95.22.39.05.72.08,1.01.1v.97h-7.64v-.97c.23-.02.46-.04.7-.06s.45-.06.62-.12c.27-.09.48-.24.61-.46.13-.22.2-.51.2-.86v-8.93c0-.3-.07-.6-.21-.89-.14-.29-.34-.53-.59-.7-.19-.12-.41-.2-.66-.26-.26-.05-.53-.09-.82-.11v-.97l4.82-.32.21.21v2.04h.07c.61-.79,1.28-1.39,2.03-1.81s1.42-.62,2.04-.62,1.12.2,1.5.6c.39.4.58.94.58,1.62Z"/>
    <path class="cls-1" d="M519.63,349.22c-.64.26-1.24.49-1.81.67-.57.18-1.26.27-2.09.27-1.21,0-2.07-.31-2.56-.92s-.74-1.48-.74-2.59v-9.81h-2.61v-1.41h2.67v-4.51h2.67v4.51h4.16v1.41h-4.13v8.09c0,.61.02,1.11.07,1.52.04.41.15.76.32,1.06.16.28.39.5.7.65.31.15.73.22,1.26.22.24,0,.6-.02,1.08-.07.47-.04.81-.1,1.01-.17v1.07Z"/>
    <path class="cls-1" d="M543.48,340.14c.61.41,1.11.95,1.51,1.62s.6,1.47.6,2.42-.21,1.81-.63,2.53c-.42.71-.97,1.3-1.64,1.76-.66.45-1.4.79-2.23,1.03s-1.68.35-2.56.35h-9.87v-1.04c.23-.02.58-.06,1.03-.12.45-.06.77-.14.97-.23.3-.14.52-.32.65-.55.13-.23.19-.53.19-.89v-14.98c0-.33-.06-.63-.17-.88-.11-.25-.34-.46-.67-.62-.29-.15-.62-.26-.98-.34s-.67-.13-.91-.15v-1.04h9.62c.74,0,1.46.07,2.14.22.68.15,1.33.41,1.95.78.58.34,1.05.81,1.42,1.39s.56,1.3.56,2.14c0,.73-.13,1.39-.4,1.96-.26.57-.64,1.06-1.12,1.48-.45.39-.97.72-1.55.99-.58.27-1.21.48-1.89.62v.13c.6.07,1.26.22,2,.45.74.23,1.4.55,1.98.96ZM539.93,337c.36-.42.61-.88.75-1.38s.21-1.09.21-1.78c0-1.15-.31-2.05-.94-2.7-.62-.65-1.61-.98-2.96-.98-.31,0-.71,0-1.18.02-.47.01-.87.03-1.19.04v8.02h1.86c.8,0,1.49-.1,2.06-.31.57-.21,1.03-.51,1.38-.93ZM541.97,343.65c0-1.23-.41-2.25-1.24-3.04-.83-.79-2.01-1.19-3.55-1.19-.63,0-1.16,0-1.59.02-.43.01-.75.03-.97.04v7.34c0,.62.25,1.08.75,1.4s1.19.47,2.09.47c1.46,0,2.57-.43,3.35-1.28s1.16-2.1,1.16-3.76Z"/>
    <path class="cls-1" d="M561.7,349.59c-.46.17-.86.3-1.21.4-.35.1-.74.15-1.18.15-.76,0-1.37-.18-1.83-.54-.46-.36-.75-.88-.87-1.56h-.09c-.64.7-1.32,1.24-2.05,1.61-.73.37-1.61.56-2.64.56-1.09,0-1.98-.33-2.68-1-.7-.67-1.05-1.54-1.05-2.61,0-.56.08-1.06.23-1.5.16-.44.39-.84.7-1.19.24-.29.57-.56.97-.79s.78-.41,1.13-.55c.44-.17,1.33-.48,2.68-.93s2.25-.8,2.72-1.06v-1.45c0-.13-.03-.37-.08-.73s-.17-.7-.35-1.03c-.2-.36-.47-.68-.83-.95s-.86-.4-1.52-.4c-.45,0-.87.08-1.26.23-.39.15-.66.31-.81.48,0,.2.05.48.14.87.09.38.14.73.14,1.06,0,.34-.15.66-.46.94-.31.28-.74.43-1.28.43-.49,0-.85-.17-1.08-.52-.23-.35-.35-.74-.35-1.17s.16-.88.48-1.29c.32-.41.73-.78,1.24-1.1.44-.27.97-.51,1.6-.7.63-.19,1.24-.29,1.84-.29.82,0,1.54.06,2.15.17.61.11,1.17.36,1.67.73.5.36.88.85,1.14,1.48.26.62.39,1.42.39,2.4,0,1.4-.01,2.64-.04,3.72s-.04,2.26-.04,3.55c0,.38.07.69.2.91.13.23.34.42.61.57.15.09.38.14.7.15s.64.01.98.01v.94ZM556.58,341.83c-.83.25-1.56.49-2.19.72s-1.21.53-1.75.88c-.49.33-.88.73-1.16,1.19-.28.46-.43,1-.43,1.63,0,.81.21,1.41.64,1.8.43.38.97.57,1.62.57.7,0,1.31-.17,1.84-.51s.97-.74,1.34-1.2l.09-5.08Z"/>
    <path class="cls-1" d="M578.67,349.59l-4.73.32-.22-.21v-1.84h-.09c-.23.24-.5.51-.79.79-.29.28-.63.53-1.01.76-.44.26-.87.46-1.28.6-.41.14-.99.21-1.74.21-1.28,0-2.26-.42-2.93-1.25-.67-.84-1-2.05-1-3.65v-6.92c0-.35-.07-.65-.2-.89-.13-.24-.33-.45-.58-.62-.18-.12-.4-.2-.67-.26s-.55-.09-.84-.11v-.97l4.83-.35.22.21v10.06c0,1.05.23,1.84.7,2.36s1.03.79,1.69.79c.54,0,1.02-.08,1.44-.25.42-.17.77-.36,1.06-.59.26-.21.5-.42.7-.65.2-.23.35-.44.46-.64v-8.2c0-.32-.07-.61-.21-.86-.14-.25-.33-.46-.57-.64-.18-.12-.44-.19-.79-.21s-.74-.05-1.17-.07v-.97l5.27-.35.22.21v11.49c0,.33.07.62.21.85.14.23.33.44.57.6.18.11.39.18.63.21.24.03.51.06.81.07v.97Z"/>
    <path class="cls-1" d="M590,342.76c.4.35.71.76.93,1.22s.32,1.02.32,1.69c0,1.34-.5,2.44-1.51,3.29-1,.85-2.3,1.28-3.9,1.28-.84,0-1.62-.15-2.33-.46-.71-.3-1.22-.58-1.52-.84l-.29.95h-1.1l-.15-5.04h1.01c.08.38.24.83.5,1.34.25.51.56.97.92,1.39.38.43.84.8,1.37,1.09.53.29,1.13.44,1.8.44.94,0,1.66-.21,2.17-.64s.76-1.04.76-1.84c0-.41-.08-.77-.24-1.06-.16-.3-.4-.56-.71-.79-.32-.22-.72-.43-1.19-.61-.47-.18-.99-.36-1.57-.54-.46-.14-.97-.33-1.53-.57s-1.05-.52-1.45-.84c-.43-.34-.78-.76-1.06-1.26-.27-.5-.41-1.09-.41-1.76,0-1.18.44-2.19,1.32-3.01s2.06-1.23,3.54-1.23c.57,0,1.15.07,1.74.22.59.15,1.07.32,1.45.53l.34-.76h1.06l.22,4.66h-1.01c-.21-1.04-.65-1.89-1.33-2.54-.68-.65-1.51-.98-2.49-.98-.8,0-1.43.2-1.89.61s-.69.89-.69,1.46c0,.44.08.81.23,1.1s.38.54.68.75c.29.2.66.38,1.11.55s1,.36,1.65.58c.65.21,1.26.45,1.83.72.57.27,1.04.58,1.42.91Z"/>
    <path class="cls-1" d="M602.38,349.22c-.64.26-1.24.49-1.81.67-.57.18-1.26.27-2.09.27-1.21,0-2.07-.31-2.56-.92s-.74-1.48-.74-2.59v-9.81h-2.61v-1.41h2.67v-4.51h2.67v4.51h4.16v1.41h-4.13v8.09c0,.61.02,1.11.07,1.52.04.41.15.76.32,1.06.16.28.39.5.7.65.31.15.73.22,1.26.22.24,0,.6-.02,1.08-.07.47-.04.81-.1,1.01-.17v1.07Z"/>
    <path class="cls-1" d="M617.95,342.46c0,1.02-.16,2.02-.48,3-.32.98-.78,1.82-1.38,2.5-.68.78-1.46,1.37-2.35,1.75-.89.38-1.89.57-3,.57-.92,0-1.8-.17-2.63-.52-.83-.35-1.57-.85-2.22-1.52-.64-.66-1.14-1.46-1.52-2.4-.38-.94-.57-2-.57-3.18,0-2.26.66-4.11,1.98-5.55,1.32-1.44,3.05-2.16,5.18-2.16s3.7.68,5.02,2.05c1.32,1.37,1.98,3.18,1.98,5.46ZM614.91,342.49c0-.73-.07-1.51-.22-2.33-.15-.82-.37-1.51-.66-2.08-.31-.61-.73-1.09-1.24-1.46-.51-.37-1.13-.55-1.87-.55s-1.4.19-1.93.56c-.53.37-.97.88-1.3,1.53-.31.6-.53,1.28-.66,2.04-.13.76-.19,1.5-.19,2.22,0,.94.08,1.81.23,2.61.15.8.39,1.51.73,2.14.33.63.75,1.12,1.26,1.48.5.36,1.13.54,1.88.54,1.23,0,2.2-.59,2.91-1.78.72-1.18,1.07-2.82,1.07-4.91Z"/>
    <path class="cls-1" d="M630.82,328.88c0,.44-.12.81-.35,1.12s-.59.46-1.07.46c-.3,0-.57-.06-.8-.19-.23-.13-.44-.3-.64-.51-.2-.21-.38-.46-.54-.73s-.31-.49-.43-.66c-.66.03-1.16.49-1.52,1.37-.36.88-.54,2.29-.54,4.23v1.48h3.73v1.41h-3.73v10.4c0,.34.07.62.2.84.13.22.34.38.62.48.23.09.55.16.94.21.39.05.73.09,1.01.11v.97h-7.64v-.97c.23-.02.46-.04.7-.06s.45-.06.62-.12c.27-.09.48-.24.61-.46.13-.22.2-.51.2-.86v-10.54h-2.86v-1.41h2.86v-.92c0-2.2.57-3.98,1.71-5.34,1.14-1.36,2.57-2.05,4.28-2.05.87,0,1.53.17,1.97.51.44.34.66.76.66,1.25Z"/>
    <path class="cls-1" d="M640.6,328.88c0,.44-.12.81-.35,1.12s-.59.46-1.07.46c-.3,0-.57-.06-.8-.19-.23-.13-.44-.3-.64-.51-.2-.21-.38-.46-.54-.73s-.31-.49-.43-.66c-.66.03-1.16.49-1.52,1.37-.36.88-.54,2.29-.54,4.23v1.48h3.73v1.41h-3.73v10.4c0,.34.07.62.2.84.13.22.34.38.62.48.23.09.55.16.94.21.39.05.73.09,1.01.11v.97h-7.64v-.97c.23-.02.46-.04.7-.06s.45-.06.62-.12c.27-.09.48-.24.61-.46.13-.22.2-.51.2-.86v-10.54h-2.86v-1.41h2.86v-.92c0-2.2.57-3.98,1.71-5.34,1.14-1.36,2.57-2.05,4.28-2.05.87,0,1.53.17,1.97.51.44.34.66.76.66,1.25Z"/>
    <path class="cls-1" d="M652.46,346.44c-.61,1.16-1.42,2.08-2.44,2.76s-2.19,1.03-3.51,1.03c-1.17,0-2.19-.21-3.06-.62-.88-.41-1.6-.97-2.17-1.67s-.99-1.53-1.27-2.47c-.28-.94-.42-1.93-.42-2.98,0-.94.15-1.86.45-2.77.3-.91.74-1.72,1.31-2.45.56-.7,1.25-1.26,2.08-1.68.83-.43,1.76-.64,2.78-.64s1.96.17,2.72.5,1.37.79,1.84,1.37c.45.55.79,1.19,1.01,1.94.22.74.33,1.55.33,2.42v.97h-9.59c0,.95.09,1.82.27,2.59.18.77.47,1.46.86,2.05.38.57.88,1.02,1.5,1.35s1.35.49,2.2.49,1.62-.2,2.25-.61c.63-.41,1.24-1.14,1.83-2.21l1.03.63ZM649.22,340.92c0-.55-.05-1.13-.14-1.76s-.24-1.15-.45-1.57c-.23-.45-.53-.81-.92-1.1s-.9-.42-1.51-.42c-1.03,0-1.88.43-2.56,1.28-.68.85-1.05,2.04-1.11,3.57h6.7Z"/>
    <path class="cls-1" d="M675.11,349.59c-.46.17-.86.3-1.21.4-.35.1-.74.15-1.18.15-.76,0-1.37-.18-1.83-.54-.46-.36-.75-.88-.87-1.56h-.09c-.64.7-1.32,1.24-2.05,1.61-.73.37-1.61.56-2.64.56-1.09,0-1.98-.33-2.68-1-.7-.67-1.05-1.54-1.05-2.61,0-.56.08-1.06.23-1.5.16-.44.39-.84.7-1.19.24-.29.57-.56.97-.79s.78-.41,1.13-.55c.44-.17,1.33-.48,2.68-.93s2.25-.8,2.72-1.06v-1.45c0-.13-.03-.37-.08-.73s-.17-.7-.35-1.03c-.2-.36-.47-.68-.83-.95s-.86-.4-1.52-.4c-.45,0-.87.08-1.26.23-.39.15-.66.31-.81.48,0,.2.05.48.14.87.09.38.14.73.14,1.06,0,.34-.15.66-.46.94-.31.28-.74.43-1.28.43-.49,0-.85-.17-1.08-.52-.23-.35-.35-.74-.35-1.17s.16-.88.48-1.29c.32-.41.73-.78,1.24-1.1.44-.27.97-.51,1.6-.7.63-.19,1.24-.29,1.84-.29.82,0,1.54.06,2.15.17.61.11,1.17.36,1.67.73.5.36.88.85,1.14,1.48.26.62.39,1.42.39,2.4,0,1.4-.01,2.64-.04,3.72-.03,1.08-.04,2.26-.04,3.55,0,.38.07.69.2.91.13.23.34.42.61.57.15.09.38.14.7.15s.64.01.98.01v.94ZM669.98,341.83c-.83.25-1.56.49-2.19.72s-1.21.53-1.75.88c-.49.33-.88.73-1.16,1.19-.28.46-.43,1-.43,1.63,0,.81.21,1.41.64,1.8.43.38.97.57,1.62.57.7,0,1.31-.17,1.84-.51s.97-.74,1.34-1.2l.09-5.08Z"/>
    <path class="cls-1" d="M683.33,349.85h-7.06v-.97c.22-.02.46-.04.72-.07.25-.02.46-.06.63-.11.27-.09.48-.24.62-.46s.21-.51.21-.86v-16.78c0-.35-.08-.68-.23-.99s-.35-.55-.59-.73c-.18-.12-.5-.23-.97-.32-.47-.1-.85-.16-1.13-.18v-.94l5.45-.32.21.22v19.87c0,.34.06.62.19.84.13.22.33.39.62.51.22.1.43.17.64.22.21.05.45.08.71.1v.97Z"/>
    <path class="cls-1" d="M691.94,349.85h-7.06v-.97c.22-.02.46-.04.72-.07.25-.02.46-.06.63-.11.27-.09.48-.24.62-.46s.21-.51.21-.86v-16.78c0-.35-.08-.68-.23-.99s-.35-.55-.59-.73c-.18-.12-.5-.23-.97-.32-.47-.1-.85-.16-1.13-.18v-.94l5.45-.32.21.22v19.87c0,.34.06.62.19.84.13.22.33.39.62.51.22.1.43.17.64.22.21.05.45.08.71.1v.97Z"/>
    <path class="cls-1" d="M706.62,346.44c-.61,1.16-1.42,2.08-2.44,2.76s-2.19,1.03-3.51,1.03c-1.17,0-2.19-.21-3.06-.62-.88-.41-1.6-.97-2.17-1.67s-.99-1.53-1.27-2.47c-.28-.94-.42-1.93-.42-2.98,0-.94.15-1.86.45-2.77.3-.91.74-1.72,1.31-2.45.56-.7,1.25-1.26,2.08-1.68.83-.43,1.76-.64,2.78-.64s1.96.17,2.72.5,1.37.79,1.84,1.37c.45.55.79,1.19,1.01,1.94.22.74.33,1.55.33,2.42v.97h-9.59c0,.95.09,1.82.27,2.59.18.77.47,1.46.86,2.05.38.57.88,1.02,1.5,1.35s1.35.49,2.2.49,1.62-.2,2.25-.61c.63-.41,1.24-1.14,1.83-2.21l1.03.63ZM703.38,340.92c0-.55-.05-1.13-.14-1.76s-.24-1.15-.45-1.57c-.23-.45-.53-.81-.92-1.1s-.9-.42-1.51-.42c-1.03,0-1.88.43-2.56,1.28-.68.85-1.05,2.04-1.11,3.57h6.7Z"/>
    <path class="cls-1" d="M719.39,337.24c0,.5-.12.94-.37,1.33-.24.39-.62.58-1.13.58-.55,0-.97-.14-1.26-.43s-.43-.6-.43-.94c0-.22.02-.41.05-.59s.07-.35.1-.53c-.46,0-1,.19-1.62.56s-1.14.9-1.57,1.59v8.43c0,.34.07.62.2.84.13.22.34.38.62.48.24.1.56.17.95.22.39.05.72.08,1.01.1v.97h-7.64v-.97c.23-.02.46-.04.7-.06s.45-.06.62-.12c.27-.09.48-.24.61-.46.13-.22.2-.51.2-.86v-8.93c0-.3-.07-.6-.21-.89-.14-.29-.34-.53-.59-.7-.19-.12-.41-.2-.66-.26-.26-.05-.53-.09-.82-.11v-.97l4.82-.32.21.21v2.04h.07c.61-.79,1.28-1.39,2.03-1.81s1.42-.62,2.04-.62,1.12.2,1.5.6c.39.4.58.94.58,1.62Z"/>
    <path class="cls-1" d="M747.69,349.85h-8.66v-1.04c.76-.05,1.4-.15,1.9-.29.5-.15.76-.33.76-.54,0-.09,0-.2-.03-.32s-.05-.24-.09-.34l-1.73-4.67h-7.31c-.27.69-.5,1.28-.67,1.79-.17.51-.33.98-.46,1.41-.13.42-.22.76-.26,1.03-.05.26-.07.48-.07.65,0,.39.31.7.93.91.62.22,1.31.34,2.09.38v1.04h-7.85v-1.04c.26-.02.57-.08.95-.17.38-.09.7-.22.94-.37.39-.26.7-.54.91-.83.22-.29.43-.69.63-1.2,1.05-2.61,2.2-5.55,3.47-8.81,1.26-3.26,2.39-6.16,3.38-8.71h1.17l6.95,17.98c.15.38.31.69.5.92s.45.47.78.69c.23.14.52.25.88.35s.67.14.91.15v1.04ZM739.3,341.33l-3.16-8.09-3.11,8.09h6.27Z"/>
    <path class="cls-1" d="M759.14,337.24c0,.5-.12.94-.37,1.33-.24.39-.62.58-1.13.58-.55,0-.97-.14-1.26-.43s-.43-.6-.43-.94c0-.22.02-.41.05-.59s.07-.35.1-.53c-.46,0-1,.19-1.62.56s-1.14.9-1.57,1.59v8.43c0,.34.07.62.2.84.13.22.34.38.62.48.24.1.56.17.95.22.39.05.72.08,1.01.1v.97h-7.64v-.97c.23-.02.46-.04.7-.06s.45-.06.62-.12c.27-.09.48-.24.61-.46.13-.22.2-.51.2-.86v-8.93c0-.3-.07-.6-.21-.89-.14-.29-.34-.53-.59-.7-.19-.12-.41-.2-.66-.26-.26-.05-.53-.09-.82-.11v-.97l4.82-.32.21.21v2.04h.07c.61-.79,1.28-1.39,2.03-1.81s1.42-.62,2.04-.62,1.12.2,1.5.6c.39.4.58.94.58,1.62Z"/>
    <path class="cls-1" d="M769.32,349.22c-.64.26-1.24.49-1.81.67-.57.18-1.26.27-2.09.27-1.21,0-2.07-.31-2.56-.92s-.74-1.48-.74-2.59v-9.81h-2.61v-1.41h2.67v-4.51h2.67v4.51h4.16v1.41h-4.13v8.09c0,.61.02,1.11.07,1.52.04.41.15.76.32,1.06.16.28.39.5.7.65.31.15.73.22,1.26.22.24,0,.6-.02,1.08-.07.47-.04.81-.1,1.01-.17v1.07Z"/>
    <path class="cls-1" d="M794.18,342.55h-6.62v6.62h-1.87v-6.62h-6.62v-1.84h6.62v-6.62h1.87v6.62h6.62v1.84Z"/>
    <path class="cls-1" d="M825.21,349.85h-5.84c-1.13-1.74-2.38-3.47-3.75-5.19-1.38-1.72-2.82-3.39-4.33-5h-.38v7.25c0,.32.06.61.18.87.12.26.35.46.67.62.16.07.45.15.87.25.43.1.78.15,1.06.16v1.04h-8.65v-1.04c.23-.02.55-.05.98-.09.43-.04.73-.1.91-.18.29-.13.51-.32.64-.57.13-.25.2-.55.2-.9v-15.04c0-.33-.06-.62-.17-.87-.11-.24-.34-.45-.67-.6-.26-.13-.58-.24-.94-.34s-.68-.16-.95-.18v-1.04h8.65v1.04c-.27,0-.62.05-1.03.13s-.72.15-.91.22c-.33.12-.56.31-.68.59s-.18.57-.18.9v7.2h.29c.88-.74,1.75-1.52,2.6-2.33.85-.81,1.63-1.61,2.32-2.42.77-.89,1.34-1.6,1.7-2.14s.54-1.01.54-1.42c0-.15-.09-.27-.27-.36-.18-.09-.39-.17-.62-.23-.27-.06-.52-.1-.73-.11-.22-.01-.39-.03-.53-.04v-1.04h7.81v1.04s-.09,0-.19.01-.21.02-.34.03c-.14.01-.27.03-.41.06-.14.03-.31.06-.53.1-.34.08-.7.2-1.06.37-.37.17-.67.38-.9.64-1.01,1.15-2.06,2.33-3.15,3.56-1.09,1.22-2.18,2.34-3.25,3.35,1.49,1.68,2.72,3.13,3.7,4.35s2.01,2.51,3.11,3.89c.42.53.84.95,1.26,1.27s.78.56,1.08.71c.25.13.57.23.95.29.38.07.7.11.95.12v1.04Z"/>
    <path class="cls-1" d="M842.04,334.23h-1.1c-.21-.77-.63-1.6-1.28-2.48-.65-.88-1.28-1.37-1.87-1.45-.3-.04-.66-.07-1.08-.09s-.89-.03-1.42-.03h-3.49v8.37h2.4c.73,0,1.29-.08,1.69-.23.4-.15.75-.38,1.03-.7.2-.21.37-.55.54-1.01.16-.46.27-.94.32-1.46h1.1v8.2h-1.1c-.03-.43-.13-.92-.3-1.47-.17-.55-.36-.95-.55-1.19-.29-.36-.67-.61-1.11-.74-.45-.13-.98-.2-1.61-.2h-2.4v7.17c0,.32.06.61.19.87.13.25.35.46.68.62.15.07.46.15.95.25.49.1.86.15,1.12.16v1.04h-9.03v-1.04c.29-.02.69-.05,1.17-.1.49-.04.81-.1.95-.17.29-.13.51-.32.64-.57.13-.25.2-.55.2-.9v-15.04c0-.32-.05-.61-.16-.86-.11-.25-.33-.45-.68-.61-.26-.13-.62-.24-1.06-.34-.45-.1-.8-.16-1.06-.18v-1.04h16.35v5.21Z"/>
    <path class="cls-1" d="M860.28,343.35l-.69,6.51h-16.74v-.51l13.11-19.17h-4.8c-.56,0-1.03,0-1.4.03s-.72.06-1.04.12c-.65.13-1.37.66-2.18,1.6-.81.94-1.42,1.93-1.83,2.98h-1.03l.63-5.89h15.61v.51l-13.11,19.17h4.95c.83,0,1.72-.06,2.66-.18s1.55-.32,1.84-.6c.64-.61,1.23-1.35,1.78-2.23.55-.88.95-1.66,1.22-2.33h1.03Z"/>
  </g>
  <polygon class="cls-1" points="516.37 65.64 516.33 136.69 443.18 209.85 443.18 65.64 516.37 65.64"/>
  <polygon class="cls-1" points="351.27 137.45 351.31 69.73 421.04 0 421.04 137.45 351.27 137.45"/>
  <g>
    <path class="cls-1" d="M140.52,294.44h-27.74v-3.34c2.45-.16,4.48-.47,6.09-.94,1.61-.47,2.42-1.05,2.42-1.74,0-.28-.03-.63-.09-1.03-.06-.41-.16-.77-.28-1.08l-5.53-14.95h-23.43c-.88,2.19-1.59,4.11-2.14,5.74-.55,1.63-1.04,3.14-1.48,4.51-.41,1.35-.69,2.45-.85,3.29-.16.85-.24,1.54-.24,2.07,0,1.25.99,2.23,2.96,2.92,1.98.69,4.2,1.1,6.68,1.22v3.34h-25.13v-3.34c.82-.06,1.84-.24,3.06-.54,1.22-.3,2.23-.7,3.01-1.2,1.25-.85,2.23-1.73,2.92-2.66.69-.92,1.36-2.2,2.02-3.83,3.35-8.37,7.05-17.78,11.1-28.22,4.04-10.44,7.65-19.74,10.82-27.89h3.76l22.25,57.57c.47,1.22,1,2.21,1.6,2.96.59.75,1.43,1.49,2.49,2.21.72.44,1.66.81,2.82,1.11,1.16.3,2.13.46,2.92.49v3.34ZM113.67,267.17l-10.11-25.9-9.96,25.9h20.07Z"/>
    <path class="cls-1" d="M163.42,294.44h-22.62v-3.1c.72-.06,1.49-.13,2.3-.21.82-.08,1.49-.2,2.02-.35.88-.28,1.54-.78,1.97-1.48s.66-1.62.66-2.75v-53.75c0-1.13-.24-2.19-.73-3.18-.49-.99-1.12-1.77-1.9-2.33-.56-.38-1.6-.72-3.1-1.04s-2.71-.5-3.62-.57v-3.01l17.45-1.03.66.71v63.63c0,1.1.2,2,.61,2.7.41.71,1.07,1.25,1.97,1.62.69.31,1.37.55,2.05.71.68.16,1.44.27,2.28.33v3.1Z"/>
    <path class="cls-1" d="M211.63,253.57c1.85,2.2,3.28,4.74,4.3,7.64,1.02,2.9,1.53,6.22,1.53,9.95s-.61,7.02-1.83,10.04c-1.22,3.03-2.84,5.6-4.85,7.74-2.1,2.16-4.44,3.83-7.01,4.99-2.57,1.16-5.3,1.74-8.18,1.74s-5.08-.31-6.87-.94c-1.79-.63-3.25-1.36-4.37-2.21h-.38v13.95c0,1.13.22,2.07.66,2.83.44.75,1.11,1.3,2.02,1.65.75.28,1.83.56,3.22.83,1.39.27,2.55.42,3.46.45v3.1h-25.91v-3.1c.97-.06,1.91-.14,2.82-.23.91-.09,1.72-.25,2.45-.47.94-.31,1.6-.86,1.97-1.65.38-.78.56-1.71.56-2.77v-49.34c0-.94-.23-1.85-.71-2.73-.47-.88-1.08-1.58-1.83-2.12-.56-.38-1.35-.67-2.35-.87-1-.2-1.97-.34-2.92-.4v-3.1l15.8-1.03.66.56v5.22l.38.09c1.63-1.88,3.65-3.45,6.07-4.7,2.41-1.25,4.81-1.88,7.2-1.88,2.89,0,5.53.61,7.92,1.83s4.46,2.87,6.18,4.94ZM203.96,286.92c1.25-1.94,2.18-4.2,2.77-6.77.6-2.57.89-5.44.89-8.61,0-2.32-.25-4.69-.75-7.1-.5-2.41-1.29-4.51-2.35-6.3-1.07-1.82-2.46-3.29-4.19-4.42-1.72-1.13-3.79-1.69-6.21-1.69s-4.3.51-5.93,1.53c-1.63,1.02-3.04,2.23-4.23,3.64v27.42c.28.85.74,1.72,1.39,2.63.64.91,1.35,1.69,2.14,2.35.97.78,2.02,1.42,3.15,1.9,1.13.49,2.51.73,4.14.73,1.76,0,3.45-.46,5.08-1.39,1.63-.92,2.99-2.23,4.09-3.93Z"/>
    <path class="cls-1" d="M265.48,283.53c-1.94,3.7-4.55,6.65-7.81,8.84-3.26,2.19-7.01,3.29-11.24,3.29-3.73,0-7-.66-9.81-1.98-2.81-1.32-5.12-3.1-6.94-5.36-1.82-2.26-3.17-4.89-4.07-7.9-.89-3.01-1.34-6.19-1.34-9.55,0-3.01.48-5.96,1.43-8.86.96-2.9,2.36-5.51,4.21-7.83,1.79-2.23,4-4.02,6.65-5.39,2.65-1.36,5.62-2.05,8.91-2.05s6.29.53,8.7,1.6c2.41,1.07,4.37,2.52,5.88,4.37,1.44,1.76,2.52,3.82,3.22,6.21.71,2.38,1.06,4.97,1.06,7.76v3.1h-30.71c0,3.05.29,5.81.87,8.3.58,2.48,1.5,4.67,2.75,6.55,1.22,1.82,2.82,3.26,4.8,4.31,1.98,1.05,4.33,1.58,7.06,1.58s5.2-.65,7.22-1.96c2.02-1.31,3.97-3.66,5.86-7.07l3.29,2.02ZM255.08,265.85c0-1.75-.15-3.63-.45-5.63-.3-2-.77-3.67-1.43-5.02-.72-1.44-1.71-2.61-2.96-3.52-1.26-.91-2.87-1.36-4.84-1.36-3.29,0-6.03,1.37-8.21,4.1-2.18,2.74-3.36,6.54-3.55,11.42h21.45Z"/>
    <path class="cls-1" d="M322.05,294.44h-22.67v-3.1c.72-.06,1.51-.12,2.38-.19.86-.06,1.57-.19,2.14-.38.88-.28,1.53-.78,1.95-1.48.42-.71.64-1.62.64-2.75v-23.84c0-3.29-.78-5.83-2.33-7.62-1.56-1.79-3.45-2.68-5.68-2.68-1.67,0-3.19.26-4.57.78-1.38.52-2.61,1.15-3.68,1.9-1.04.72-1.86,1.5-2.48,2.33-.61.83-1.06,1.5-1.34,2v26.67c0,1.07.22,1.94.66,2.63.44.69,1.1,1.22,1.97,1.6.66.31,1.37.55,2.14.71.77.16,1.56.27,2.37.33v3.1h-22.72v-3.1c.72-.06,1.47-.12,2.23-.19.77-.06,1.44-.19,2-.38.88-.28,1.53-.77,1.95-1.48.42-.7.64-1.62.64-2.75v-28.61c0-1.06-.23-2.04-.68-2.94-.46-.89-1.09-1.62-1.9-2.18-.6-.38-1.3-.65-2.12-.82-.82-.17-1.69-.29-2.63-.35v-3.1l15.43-1.03.66.66v6.54h.24c.75-.75,1.69-1.65,2.82-2.7,1.13-1.05,2.19-1.9,3.2-2.56,1.16-.75,2.54-1.38,4.14-1.88,1.6-.5,3.4-.75,5.41-.75,4.45,0,7.75,1.39,9.9,4.16,2.15,2.78,3.22,6.47,3.22,11.08v24.13c0,1.1.19,1.98.56,2.66s1.02,1.2,1.93,1.58c.75.31,1.4.53,1.95.66.55.13,1.31.22,2.28.28v3.1Z"/>
    <path class="cls-1" d="M371.67,293.6c-1.47.53-2.77.96-3.88,1.29-1.11.33-2.37.49-3.79.49-2.45,0-4.4-.57-5.86-1.72-1.46-1.14-2.39-2.81-2.8-5.01h-.28c-2.04,2.26-4.23,3.98-6.56,5.17-2.33,1.19-5.15,1.79-8.44,1.79-3.48,0-6.34-1.07-8.58-3.2-2.24-2.13-3.36-4.92-3.36-8.37,0-1.79.25-3.39.75-4.8.5-1.41,1.25-2.68,2.26-3.81.78-.94,1.82-1.78,3.1-2.52,1.29-.74,2.49-1.32,3.62-1.76,1.41-.53,4.27-1.52,8.58-2.96,4.31-1.44,7.22-2.57,8.72-3.39v-4.66c0-.41-.09-1.19-.26-2.35-.17-1.16-.54-2.26-1.11-3.29-.63-1.16-1.51-2.17-2.66-3.03s-2.77-1.29-4.87-1.29c-1.44,0-2.78.24-4.02.73-1.24.49-2.11,1-2.61,1.53,0,.63.15,1.55.45,2.78.3,1.22.45,2.35.45,3.39,0,1.1-.49,2.1-1.48,3.01-.99.91-2.36,1.36-4.11,1.36-1.57,0-2.72-.56-3.46-1.67-.74-1.11-1.11-2.36-1.11-3.74s.51-2.82,1.53-4.14c1.02-1.32,2.34-2.49,3.97-3.53,1.41-.88,3.12-1.62,5.13-2.23,2.01-.61,3.97-.92,5.88-.92,2.63,0,4.93.18,6.89.54,1.96.36,3.74,1.14,5.34,2.33,1.6,1.16,2.81,2.74,3.65,4.73.83,1.99,1.25,4.55,1.25,7.69,0,4.48-.05,8.46-.14,11.92-.09,3.46-.14,7.25-.14,11.36,0,1.22.21,2.2.63,2.92.42.72,1.07,1.33,1.95,1.83.47.28,1.21.44,2.23.47,1.02.03,2.06.05,3.13.05v3.01ZM355.26,268.77c-2.67.79-5,1.56-7.01,2.31-2.01.75-3.87,1.7-5.6,2.83-1.57,1.07-2.81,2.33-3.72,3.79-.91,1.46-1.36,3.2-1.36,5.21,0,2.61.68,4.52,2.05,5.75,1.36,1.23,3.1,1.84,5.2,1.84,2.23,0,4.19-.54,5.88-1.63s3.12-2.36,4.28-3.84l.28-16.26Z"/>
    <path class="cls-1" d="M469.21,231.05c-.88.03-2.23.28-4.05.75-1.82.47-3.12.96-3.9,1.46-1.13.78-1.89,2.29-2.28,4.51-.39,2.23-.59,5.05-.59,8.47v48.86h-4.09l-40.45-54.6v34.43c0,3.86.24,6.82.73,8.89.49,2.07,1.23,3.54,2.23,4.42.72.69,2.21,1.33,4.47,1.93,2.26.6,3.75.91,4.47.94v3.34h-27.37v-3.34c.85-.06,2.27-.37,4.28-.92,2.01-.55,3.26-1.04,3.76-1.48,1.1-.88,1.85-2.22,2.26-4.02.41-1.8.61-4.88.61-9.24v-32.87c0-1.44-.25-2.89-.75-4.33-.5-1.44-1.18-2.56-2.02-3.34-1.13-1.03-2.66-1.92-4.59-2.66-1.93-.74-3.49-1.14-4.68-1.2v-3.34h19.07l37.51,50.88v-31.74c0-3.89-.25-6.87-.75-8.96-.5-2.08-1.22-3.47-2.16-4.16-.88-.6-2.31-1.18-4.3-1.74-1.99-.56-3.5-.88-4.54-.94v-3.34h27.14v3.34Z"/>
    <path class="cls-1" d="M518.64,270.79c0,3.26-.52,6.47-1.55,9.62-1.04,3.15-2.51,5.82-4.42,8.02-2.17,2.51-4.68,4.37-7.53,5.6-2.86,1.22-6.06,1.83-9.61,1.83-2.95,0-5.76-.56-8.43-1.67-2.67-1.11-5.04-2.74-7.11-4.87-2.04-2.1-3.66-4.66-4.87-7.69-1.21-3.02-1.81-6.42-1.81-10.18,0-7.24,2.11-13.17,6.33-17.78,4.22-4.61,9.75-6.91,16.6-6.91s11.86,2.19,16.08,6.56c4.22,4.37,6.33,10.2,6.33,17.47ZM508.9,270.88c0-2.35-.24-4.84-.71-7.45s-1.18-4.84-2.12-6.66c-1.01-1.94-2.33-3.5-3.96-4.68-1.63-1.18-3.63-1.76-5.99-1.76s-4.48.6-6.2,1.79c-1.71,1.19-3.1,2.82-4.17,4.89-1.01,1.91-1.71,4.09-2.12,6.54-.41,2.45-.61,4.81-.61,7.1,0,3.01.24,5.79.73,8.35.49,2.56,1.26,4.84,2.33,6.84,1.07,2.01,2.41,3.58,4.03,4.73,1.62,1.15,3.62,1.72,6.01,1.72,3.93,0,7.04-1.9,9.33-5.69,2.29-3.79,3.44-9.03,3.44-15.71Z"/>
    <path class="cls-1" d="M560.82,254.05c0,1.6-.39,3.02-1.17,4.26-.78,1.24-1.99,1.86-3.62,1.86-1.76,0-3.1-.45-4.02-1.36-.92-.91-1.39-1.91-1.39-3.01,0-.69.05-1.32.16-1.88.11-.56.21-1.13.31-1.69-1.47,0-3.2.6-5.17,1.79-1.98,1.19-3.65,2.89-5.03,5.08v27c0,1.1.21,1.99.64,2.68.42.69,1.09,1.21,2,1.55.78.31,1.8.55,3.03.71,1.24.16,2.31.27,3.22.33v3.1h-24.46v-3.1c.72-.06,1.47-.12,2.23-.19.77-.06,1.44-.19,2-.38.88-.28,1.53-.77,1.95-1.48.42-.7.64-1.62.64-2.75v-28.61c0-.97-.23-1.93-.68-2.87-.46-.94-1.09-1.69-1.9-2.26-.6-.38-1.3-.65-2.12-.82-.82-.17-1.69-.29-2.63-.35v-3.1l15.43-1.03.66.66v6.54h.24c1.94-2.54,4.11-4.47,6.49-5.78,2.38-1.32,4.56-1.98,6.54-1.98s3.58.64,4.82,1.93c1.24,1.29,1.86,3.01,1.86,5.17Z"/>
    <path class="cls-1" d="M615.57,293.6l-16.22,1.03-.71-.66v-4.33l-.37-.09c-1.63,1.82-3.64,3.31-6.04,4.47-2.39,1.16-4.86,1.74-7.4,1.74s-5.17-.59-7.63-1.76c-2.46-1.18-4.6-2.83-6.41-4.96-1.85-2.16-3.31-4.77-4.39-7.81-1.08-3.04-1.62-6.4-1.62-10.06,0-3.36.58-6.54,1.74-9.55,1.16-3.01,2.76-5.64,4.79-7.9,1.91-2.1,4.25-3.78,7.02-5.03,2.77-1.25,5.6-1.88,8.48-1.88,2.16,0,4.28.28,6.36.82,2.08.55,3.87,1.25,5.38,2.09v-16.16c0-1.32-.22-2.52-.66-3.6s-1.05-1.91-1.83-2.47c-.88-.6-2.06-1.03-3.55-1.3-1.49-.27-3.1-.46-4.82-.59v-2.92l19-1.03.71.71v62.51c0,1.1.21,2.03.63,2.8.42.77,1.04,1.42,1.86,1.95.6.38,1.46.61,2.59.71s2.16.16,3.1.19v3.1ZM598.54,285.46v-27.14c-.25-.81-.66-1.69-1.22-2.63s-1.27-1.8-2.11-2.59c-.91-.78-1.97-1.43-3.19-1.95-1.22-.52-2.64-.78-4.27-.78-1.88,0-3.61.49-5.19,1.46-1.58.97-2.98,2.37-4.2,4.19-1.16,1.76-2.07,3.99-2.75,6.7-.67,2.71-1.01,5.71-1.01,9.01,0,2.63.25,5.02.75,7.17.5,2.15,1.35,4.15,2.53,6,1.1,1.76,2.5,3.17,4.2,4.23,1.7,1.07,3.73,1.6,6.08,1.6,2.5,0,4.58-.55,6.22-1.65,1.64-1.1,3.03-2.3,4.15-3.62Z"/>
    <path class="cls-1" d="M712.03,231.05c-.88.03-2.16.22-3.86.56-1.69.35-3.07.86-4.14,1.55-1.07.72-1.8,2.21-2.21,4.47-.41,2.26-.61,5.02-.61,8.28v29.02c0,3.7-.77,6.91-2.3,9.64-1.54,2.73-3.56,4.97-6.07,6.73-2.48,1.69-5.09,2.91-7.83,3.64-2.74.74-5.37,1.11-7.88,1.11-4.01,0-7.59-.53-10.72-1.58-3.13-1.05-5.77-2.47-7.9-4.26-2.1-1.79-3.68-3.83-4.75-6.14-1.07-2.3-1.6-4.71-1.6-7.22v-39.46c0-1.1-.18-2.01-.54-2.75-.36-.74-1.09-1.42-2.19-2.05-.78-.44-1.79-.79-3.01-1.06-1.22-.27-2.23-.43-3.01-.49v-3.34h27.8v3.34c-.88.03-1.98.17-3.32.42-1.33.25-2.31.49-2.94.7-1.07.38-1.78,1-2.14,1.88s-.54,1.83-.54,2.87v36.84c0,1.79.2,3.66.59,5.62.39,1.96,1.17,3.78,2.33,5.48,1.22,1.72,2.88,3.13,4.98,4.23s4.99,1.64,8.65,1.64c3.45,0,6.34-.55,8.68-1.64,2.33-1.1,4.18-2.54,5.53-4.32,1.29-1.69,2.19-3.46,2.73-5.31.53-1.85.8-3.71.8-5.59v-27.35c0-3.48-.25-6.32-.75-8.53-.5-2.21-1.24-3.66-2.21-4.35-1.1-.78-2.6-1.39-4.49-1.83-1.9-.44-3.35-.69-4.35-.75v-3.34h27.28v3.34Z"/>
    <path class="cls-1" d="M781.96,267.82c-.75.09-1.76.24-3.03.45-1.27.2-2.3.49-3.08.87-.94.47-1.61,1.14-2,2-.39.86-.59,1.87-.59,3.03v5.17c0,3.76.02,6.3.07,7.62.05,1.32.1,2.4.16,3.24-4.17,1.88-8.32,3.32-12.46,4.33s-8.2,1.5-12.18,1.5c-4.26,0-8.37-.8-12.32-2.4-3.95-1.6-7.4-3.87-10.35-6.82-2.98-2.98-5.35-6.6-7.1-10.87-1.76-4.27-2.63-9.04-2.63-14.31s.84-9.8,2.52-14.14c1.68-4.34,4.05-8.12,7.12-11.32,2.98-3.14,6.53-5.58,10.65-7.32,4.12-1.74,8.54-2.61,13.24-2.61,3.76,0,7.04.45,9.83,1.36,2.79.91,5.25,2.01,7.38,3.29l1.93-3.2h3.76l.42,23.33h-3.86c-.66-2.57-1.47-5.1-2.45-7.6-.97-2.49-2.23-4.73-3.77-6.7-1.54-1.98-3.41-3.55-5.62-4.73-2.21-1.18-4.86-1.76-7.93-1.76-3.36,0-6.36.68-8.99,2.05-2.64,1.37-4.93,3.4-6.87,6.09-1.92,2.61-3.39,5.85-4.43,9.74-1.04,3.89-1.55,8.24-1.55,13.04,0,4.24.51,8.23,1.53,11.98,1.02,3.75,2.5,6.99,4.45,9.72,1.95,2.79,4.38,4.99,7.3,6.59,2.92,1.6,6.23,2.4,9.94,2.4,2.76,0,5.28-.42,7.56-1.27s3.89-1.74,4.83-2.68c.25-1.63.38-3.28.4-4.94.02-1.66.02-3.07.02-4.23v-3.67c0-1.32-.18-2.48-.54-3.5-.36-1.02-1.11-1.76-2.24-2.23-1.03-.47-2.44-.82-4.21-1.06-1.77-.23-3.16-.38-4.16-.45v-3.43h29.25v3.43Z"/>
  </g>
</svg>